<svg xmlns="http://www.w3.org/2000/svg" xmlns:xlink="http://www.w3.org/1999/xlink" version="1.1" x="0px" y="0px" width="250.703px" height="41.406px" viewBox="0 0 250.703 41.406" style="enable-background:new 0 0 250.703 41.406;" xml:space="preserve"><circle style="fill:none;stroke:#FFFFFF;stroke-width:1.406;stroke-miterlimit:10;" cx="125" cy="20.703" r="20"/><path style="fill:#FFFFFF;" d="M210.025,20.203h-65.052c0.005,0.167,0.026,0.331,0.026,0.499c0,0.169-0.021,0.333-0.026,0.501 h65.052c-0.005-0.168-0.025-0.332-0.025-0.501C210,20.534,210.021,20.37,210.025,20.203"/><path style="fill:#FFFFFF;" d="M225.506,14.711c0.826,0,1.498-0.67,1.498-1.498v-2.996c0-0.83-0.672-1.499-1.498-1.499 c-0.827,0-1.497,0.669-1.497,1.499v2.996C224.009,14.041,224.679,14.711,225.506,14.711"/><path style="fill:#FFFFFF;" d="M234.493,14.711c0.828,0,1.498-0.67,1.498-1.498v-2.996c0-0.83-0.67-1.499-1.498-1.499 c-0.826,0-1.497,0.669-1.497,1.499v2.996C232.996,14.041,233.667,14.711,234.493,14.711"/><path style="fill:#FFFFFF;" d="M237.708,11.714c-0.074,0-0.145,0.017-0.218,0.022v1.512c0,1.656-1.342,2.996-2.997,2.996 c-0.372,0-0.727-0.077-1.058-0.202c-1.131-0.429-1.938-1.513-1.938-2.794v-1.534h-2.995v1.534c0,1.281-0.807,2.366-1.938,2.794 c-0.331,0.125-0.685,0.202-1.058,0.202c-1.656,0-2.998-1.34-2.998-2.996v-1.512c-0.072-0.005-0.143-0.022-0.217-0.022 c-2.361,0-4.276,1.915-4.276,4.277v12.42c0,2.363,1.915,4.277,4.276,4.277h15.417c2.361,0,4.276-1.914,4.276-4.277v-12.42 C241.984,13.629,240.069,11.714,237.708,11.714 M222.508,20.703h2.996v2.995h-2.996V20.703z M225.506,29.692h-2.996v-2.996h2.996 V29.692z M231.497,29.692h-2.995v-2.996h2.995V29.692z M231.497,23.705h-2.995v-2.996h2.995V23.705z M234.493,29.692v-2.997h2.997 L234.493,29.692z M237.49,23.699h-2.996v-2.995h2.996V23.699z"/><polygon style="fill:#FFFFFF;" points="124.974,25.716 135.385,17.086 130.747,17.086 130.747,5.457 119.201,5.457 119.201,17.086 114.614,17.086 "/><path style="fill:#FFFFFF;" d="M122.371,34.864c0.722,0.724,1.598,1.085,2.629,1.085c1.03,0,1.907-0.361,2.628-1.085 c0.722-0.724,1.083-1.594,1.083-2.61c0-1.016-0.361-1.894-1.083-2.636c-0.721-0.74-1.598-1.111-2.628-1.111 c-1.031,0-1.907,0.371-2.629,1.111c-0.722,0.742-1.082,1.62-1.082,2.636C121.289,33.27,121.649,34.14,122.371,34.864"/><path style="fill:#FFFFFF;" d="M39.983,21.203h65.041c-0.004-0.168-0.024-0.332-0.024-0.501c0-0.168,0.021-0.332,0.024-0.499H39.983 C39.988,20.37,40,20.535,40,20.703S39.988,21.036,39.983,21.203"/><path style="fill:#D11C5C;" d="M19.999,0.703C8.954,0.703,0,9.658,0,20.703c0,11.046,8.954,20,19.999,20 c11.046,0,20.001-8.954,20.001-20C40,9.658,31.045,0.703,19.999,0.703 M17.257,9.333c0-3.908,5.445-3.553,5.445,0v13.889 c0,3.079-5.445,3.393-5.445,0V9.333z M23.019,31.942c0,3.867-6.038,3.947-6.038,0v-0.748c0-3.355,6.038-3.395,6.038,0V31.942z"/><circle style="fill:none;stroke:#FFFFFF;stroke-width:1.406;stroke-miterlimit:10;" cx="230" cy="20.703" r="20"/></svg>
