<svg xmlns="http://www.w3.org/2000/svg" xmlns:xlink="http://www.w3.org/1999/xlink" version="1.1" x="0px" y="0px" width="30px" height="30px" viewBox="0 0 29.881 30" style="enable-background:new 0 0 29.881 30;" xml:space="preserve"><path style="fill:#FFFFFF;" d="M15.068,29.812c-8.18,0-14.812-6.631-14.812-14.812c0-8.18,6.632-14.812,14.812-14.812 c8.181,0,14.812,6.632,14.812,14.812C29.881,23.182,23.249,29.812,15.068,29.812 M12.832,23.324c0,2.923,4.473,2.863,4.473,0V22.77 c0-2.514-4.473-2.484-4.473,0V23.324z M13.037,16.866c0,2.513,4.033,2.28,4.033,0V6.579c0-2.631-4.033-2.894-4.033,0V16.866z"/></svg>
