<svg xmlns="http://www.w3.org/2000/svg" xmlns:xlink="http://www.w3.org/1999/xlink" version="1.1" x="0px" y="0px" width="19.998px" height="19.919px" viewBox="0 0 19.998 19.919" style="enable-background:new 0 0 19.998 19.919;" xml:space="preserve"><polygon style="fill:none;stroke:#BC1C5C;stroke-width:0.504;stroke-miterlimit:10;" points="14.604,3.998 10.243,9.792 14.805,15.922 14.386,15.922 10.01,10.06 5.615,15.922 5.196,15.922 9.791,9.792 5.448,3.998 5.867,3.998 10.01,9.525 14.185,3.998 "/><path style="fill:#D11C5C;" d="M9.999,0C4.477,0,0,4.459,0,9.96c0,5.5,4.477,9.959,9.999,9.959c5.523,0,9.999-4.459,9.999-9.959 C19.998,4.459,15.522,0,9.999,0 M9.999,19.122c-5.072,0-9.199-4.111-9.199-9.162c0-5.053,4.127-9.163,9.199-9.163 s9.199,4.11,9.199,9.163C19.198,15.011,15.071,19.122,9.999,19.122"/></svg>
