<?xml version="1.0" encoding="iso-8859-1"?>
<!-- Generator: Adobe Illustrator 16.2.1, SVG Export Plug-In . SVG Version: 6.00 Build 0)  -->
<!DOCTYPE svg PUBLIC "-//W3C//DTD SVG 1.1//EN" "http://www.w3.org/Graphics/SVG/1.1/DTD/svg11.dtd">
<svg version="1.1" id="Layer_1" xmlns="http://www.w3.org/2000/svg" xmlns:xlink="http://www.w3.org/1999/xlink" x="0px" y="0px"
	 width="20px" height="20px" viewBox="0 0 20 20" style="enable-background:new 0 0 20 20;" xml:space="preserve">
<path style="fill:#FFFFFF;" d="M10,0C4.478,0,0,4.477,0,10s4.478,10,10,10c5.523,0,10-4.477,10-10S15.523,0,10,0 M10,19.2
	c-5.073,0-9.2-4.127-9.2-9.2c0-5.073,4.127-9.2,9.2-9.2s9.2,4.127,9.2,9.2C19.2,15.073,15.073,19.2,10,19.2"/>
<polygon style="fill:#FFFFFF;" points="10.4,4 9.601,4 9.601,9.6 4.027,9.6 4.027,10.4 9.601,10.4 9.601,15.973 10.4,15.973 
	10.4,10.4 16,10.4 16,9.6 10.4,9.6 "/>
<g>
</g>
<g>
</g>
<g>
</g>
<g>
</g>
<g>
</g>
<g>
</g>
<g>
</g>
<g>
</g>
<g>
</g>
<g>
</g>
<g>
</g>
<g>
</g>
<g>
</g>
<g>
</g>
<g>
</g>
</svg>
