<?xml version="1.0" encoding="iso-8859-1"?>
<!-- Generator: Adobe Illustrator 16.2.1, SVG Export Plug-In . SVG Version: 6.00 Build 0)  -->
<!DOCTYPE svg PUBLIC "-//W3C//DTD SVG 1.1//EN" "http://www.w3.org/Graphics/SVG/1.1/DTD/svg11.dtd">
<svg version="1.1" id="Layer_1" xmlns="http://www.w3.org/2000/svg" xmlns:xlink="http://www.w3.org/1999/xlink" x="0px" y="0px"
	 width="612px" height="792px" viewBox="0 0 612 792" style="enable-background:new 0 0 612 792;" xml:space="preserve">
<path style="fill:#D2D6D6;" d="M423.806-72.947c-0.809,0-1.213-0.405-1.213-1.213c0-0.809,0.404-1.213,1.213-1.213
	s1.213,0.404,1.213,1.213C425.019-73.352,424.614-72.947,423.806-72.947 M423.806-68.096c-0.809,0-1.213-0.404-1.213-1.213
	c0-0.808,0.404-1.213,1.213-1.213s1.213,0.405,1.213,1.213C425.019-68.5,424.614-68.096,423.806-68.096 M423.806-63.245
	c-0.809,0-1.213-0.404-1.213-1.213c0-0.808,0.404-1.212,1.213-1.212s1.213,0.404,1.213,1.212
	C425.019-63.649,424.614-63.245,423.806-63.245 M427.444-75.373H442v2.426h-14.556V-75.373z M427.444-70.522H442v2.426h-14.556
	V-70.522z M427.444-65.67H442v2.426h-14.556V-65.67z"/>
<g>
</g>
<g>
</g>
<g>
</g>
<g>
</g>
<g>
</g>
<g>
</g>
<g>
</g>
<g>
</g>
<g>
</g>
<g>
</g>
<g>
</g>
<g>
</g>
<g>
</g>
<g>
</g>
<g>
</g>
</svg>
