<?xml version="1.0" encoding="iso-8859-1"?>
<!-- Generator: Adobe Illustrator 16.2.1, SVG Export Plug-In . SVG Version: 6.00 Build 0)  -->
<!DOCTYPE svg PUBLIC "-//W3C//DTD SVG 1.1//EN" "http://www.w3.org/Graphics/SVG/1.1/DTD/svg11.dtd">
<svg version="1.1" id="Layer_1" xmlns="http://www.w3.org/2000/svg" xmlns:xlink="http://www.w3.org/1999/xlink" x="0px" y="0px"
	 width="146px" height="17.667px" viewBox="0 0 146 17.667" style="enable-background:new 0 0 146 17.667;" xml:space="preserve">
<path style="fill:#5AC8FA;" d="M1.319,9.042H0l0.204-0.824h1.403l0.887-2.533H1.031l0.216-0.823h1.535l0.72-2.067h0.851L3.622,4.863
	h2.29l0.72-2.067h0.851L6.752,4.863h1.331L7.867,5.686H6.476L5.577,8.219h1.475L6.836,9.042H5.288l-0.731,2.114H3.706l0.743-2.114
	h-2.29l-0.732,2.114H0.575L1.319,9.042z M4.725,8.219l0.899-2.533H3.346L2.459,8.219H4.725z"/>
<path style="fill:#5AC8FA;" d="M9.695,4.981h0.924l-0.264,1.003c0.564-0.632,1.151-1.134,2.063-1.134
	c1.043,0,1.595,0.669,1.763,1.397c0.551-0.848,1.391-1.397,2.494-1.397c1.115,0,1.894,0.764,1.894,1.911
	c0,0.287-0.095,0.633-0.167,0.955l-0.924,3.44h-0.923l0.947-3.499c0.049-0.203,0.084-0.49,0.084-0.693c0-0.8-0.479-1.29-1.283-1.29
	c-0.912,0-1.835,0.848-2.147,1.995l-0.923,3.487H12.31l0.935-3.499c0.06-0.203,0.096-0.49,0.096-0.693c0-0.8-0.492-1.29-1.296-1.29
	c-0.911,0-1.834,0.848-2.146,1.995l-0.935,3.487H8.04L9.695,4.981z"/>
<path style="fill:#5AC8FA;" d="M26.299,7.609c0,0.979-0.432,1.911-1.115,2.604c-0.66,0.657-1.572,1.087-2.543,1.087
	c-1.703,0-2.818-1.171-2.818-2.772c0-0.979,0.42-1.911,1.115-2.592c0.66-0.657,1.559-1.086,2.531-1.086
	C25.171,4.851,26.299,6.009,26.299,7.609 M24.464,9.711c0.552-0.549,0.888-1.314,0.888-2.066c0-1.254-0.792-1.983-1.943-1.983
	c-0.672,0-1.295,0.31-1.763,0.776c-0.54,0.538-0.888,1.302-0.888,2.067c0,1.254,0.792,1.97,1.943,1.97
	C23.373,10.476,23.996,10.178,24.464,9.711"/>
<path style="fill:#5AC8FA;" d="M27.791,10.046c0-0.215,0.036-0.454,0.084-0.645l0.971-3.608h-0.851l0.215-0.812h0.864l0.504-1.863
	h0.911l-0.503,1.863h1.954l-0.216,0.812H29.77l-0.96,3.56c-0.024,0.144-0.048,0.322-0.048,0.454c0,0.43,0.324,0.633,0.852,0.633
	c0.276,0,0.575-0.06,0.899-0.191l-0.228,0.836c-0.323,0.132-0.623,0.179-0.983,0.179C28.413,11.264,27.791,10.846,27.791,10.046"/>
<path style="fill:#5AC8FA;" d="M33.645,4.981h0.924l-1.667,6.175h-0.924L33.645,4.981z M34.221,2.617h1.055L35,3.632h-1.055
	L34.221,2.617z"/>
<polygon style="fill:#5AC8FA;" points="35.914,4.981 36.885,4.981 37.581,10.106 41.011,4.981 42.054,4.981 37.724,11.205 
	36.909,11.205 "/>
<path style="fill:#5AC8FA;" d="M41.59,9.58c0-0.597,0.216-1.099,0.587-1.469c0.492-0.49,1.259-0.764,2.171-0.764
	c0.828,0,1.607,0.166,2.207,0.334l0.035-0.143c0.049-0.18,0.084-0.407,0.084-0.574c0-0.8-0.551-1.254-1.679-1.254
	c-0.659,0-1.199,0.131-1.751,0.323l-0.155-0.765c0.612-0.227,1.247-0.37,2.05-0.37c1.559,0,2.435,0.716,2.435,1.911
	c0,0.263-0.048,0.561-0.132,0.848l-0.935,3.5h-0.9l0.264-0.968c-0.576,0.657-1.331,1.099-2.315,1.099
	C42.513,11.288,41.59,10.679,41.59,9.58 M46.279,8.732l0.12-0.43c-0.54-0.156-1.247-0.275-2.015-0.275
	c-0.636,0-1.14,0.192-1.463,0.514c-0.264,0.251-0.396,0.573-0.396,0.932c0,0.657,0.516,1.098,1.319,1.098
	C44.887,10.571,45.979,9.819,46.279,8.732"/>
<path style="fill:#5AC8FA;" d="M49.065,10.046c0-0.215,0.036-0.454,0.084-0.645l0.971-3.608h-0.851l0.215-0.812h0.864l0.504-1.863
	h0.911L51.26,4.981h1.954l-0.216,0.812h-1.954l-0.96,3.56c-0.024,0.144-0.048,0.322-0.048,0.454c0,0.43,0.324,0.633,0.852,0.633
	c0.276,0,0.575-0.06,0.899-0.191l-0.228,0.836c-0.323,0.132-0.624,0.179-0.983,0.179C49.689,11.264,49.065,10.846,49.065,10.046"/>
<path style="fill:#5AC8FA;" d="M54.92,4.981h0.924l-1.667,6.175h-0.924L54.92,4.981z M55.496,2.617h1.055l-0.276,1.015H55.22
	L55.496,2.617z"/>
<path style="fill:#5AC8FA;" d="M63.197,7.609c0,0.979-0.432,1.911-1.115,2.604c-0.66,0.657-1.572,1.087-2.543,1.087
	c-1.703,0-2.818-1.171-2.818-2.772c0-0.979,0.42-1.911,1.115-2.592c0.66-0.657,1.559-1.086,2.531-1.086
	C62.069,4.851,63.197,6.009,63.197,7.609 M61.362,9.711c0.552-0.549,0.888-1.314,0.888-2.066c0-1.254-0.792-1.983-1.943-1.983
	c-0.672,0-1.295,0.31-1.763,0.776c-0.54,0.538-0.888,1.302-0.888,2.067c0,1.254,0.792,1.97,1.943,1.97
	C60.271,10.476,60.894,10.178,61.362,9.711"/>
<path style="fill:#5AC8FA;" d="M65.647,4.981h0.922l-0.262,1.003c0.563-0.632,1.211-1.134,2.157-1.134c1.2,0,1.979,0.74,1.979,1.911
	c0,0.287-0.072,0.633-0.156,0.955l-0.911,3.44h-0.924l0.937-3.499c0.06-0.203,0.096-0.49,0.096-0.693c0-0.813-0.528-1.29-1.392-1.29
	c-0.96,0-1.919,0.824-2.243,1.995l-0.935,3.487h-0.924L65.647,4.981z"/>
<polygon style="fill:#FFFFFF;" points="74.581,4.916 75.553,4.916 76.248,10.041 79.678,4.916 80.721,4.916 76.392,11.139 
	75.577,11.139 "/>
<path style="fill:#FFFFFF;" d="M82.272,4.917h0.924l-1.667,6.175h-0.924L82.272,4.917z M82.848,2.551h1.055l-0.276,1.015h-1.055
	L82.848,2.551z"/>
<path style="fill:#FFFFFF;" d="M83.714,9.515c0-0.597,0.216-1.099,0.587-1.469c0.492-0.49,1.259-0.764,2.171-0.764
	c0.828,0,1.607,0.166,2.207,0.334l0.035-0.143c0.048-0.18,0.084-0.407,0.084-0.574c0-0.8-0.551-1.254-1.679-1.254
	c-0.659,0-1.199,0.131-1.75,0.323l-0.156-0.765c0.612-0.227,1.247-0.37,2.05-0.37c1.559,0,2.435,0.716,2.435,1.911
	c0,0.263-0.048,0.561-0.132,0.848l-0.935,3.5h-0.9l0.264-0.968c-0.575,0.657-1.331,1.099-2.315,1.099
	C84.637,11.223,83.714,10.614,83.714,9.515 M88.403,8.667l0.12-0.43c-0.54-0.156-1.247-0.275-2.015-0.275
	c-0.636,0-1.139,0.191-1.463,0.514c-0.264,0.251-0.396,0.573-0.396,0.932c0,0.657,0.516,1.098,1.319,1.098
	C87.011,10.506,88.103,9.754,88.403,8.667"/>
<path style="fill:#FFFFFF;" d="M113.833,1.631c-0.626,0.276-1.3,0.463-2.006,0.547c0.722-0.43,1.276-1.111,1.536-1.923
	c-0.676,0.399-1.422,0.688-2.219,0.843C110.508,0.422,109.599,0,108.594,0c-1.928,0-3.492,1.558-3.492,3.477
	c0,0.273,0.03,0.538,0.09,0.792c-2.903-0.145-5.477-1.528-7.201-3.633c-0.3,0.515-0.473,1.112-0.473,1.749
	c0,1.205,0.617,2.27,1.555,2.894C98.5,5.262,97.961,5.104,97.49,4.845v0.043c0,1.685,1.204,3.091,2.803,3.409
	c-0.294,0.082-0.602,0.123-0.921,0.123c-0.225,0-0.445-0.021-0.657-0.062c0.444,1.381,1.734,2.387,3.263,2.414
	c-1.196,0.933-2.702,1.488-4.339,1.488c-0.282,0-0.56-0.015-0.833-0.048c1.546,0.986,3.382,1.562,5.355,1.562
	c6.426,0,9.939-5.298,9.939-9.893c0-0.151-0.003-0.302-0.01-0.45C112.773,2.941,113.366,2.328,113.833,1.631"/>
<g>
</g>
<g>
</g>
<g>
</g>
<g>
</g>
<g>
</g>
<g>
</g>
<g>
</g>
<g>
</g>
<g>
</g>
<g>
</g>
<g>
</g>
<g>
</g>
<g>
</g>
<g>
</g>
<g>
</g>
</svg>
