<?xml version="1.0" encoding="iso-8859-1"?>
<!-- Generator: Adobe Illustrator 16.2.1, SVG Export Plug-In . SVG Version: 6.00 Build 0)  -->
<!DOCTYPE svg PUBLIC "-//W3C//DTD SVG 1.1//EN" "http://www.w3.org/Graphics/SVG/1.1/DTD/svg11.dtd">
<svg version="1.1" id="Layer_1" xmlns="http://www.w3.org/2000/svg" xmlns:xlink="http://www.w3.org/1999/xlink" x="0px" y="0px"
	 width="27.114px" height="20.494px" viewBox="0 0 27.114 20.494" style="enable-background:new 0 0 27.114 20.494;"
	 xml:space="preserve">
<path style="fill:none;stroke:#FFFFFF;stroke-width:1.009;stroke-miterlimit:10;" d="M0.504,7.019c0-0.721,0.26-1.334,0.779-1.842
	c0.52-0.517,1.137-0.776,1.85-0.776h5.196l1.315-2.588l0.367-0.67c0.081-0.142,0.208-0.284,0.382-0.426
	c0.173-0.142,0.361-0.213,0.565-0.213h5.197c0.153,0,0.292,0.03,0.42,0.091c0.127,0.061,0.247,0.162,0.359,0.305
	c0.112,0.142,0.201,0.274,0.268,0.395c0.066,0.122,0.155,0.295,0.267,0.518l1.315,2.588h5.196c0.713,0,1.33,0.259,1.849,0.776
	c0.52,0.508,0.78,1.121,0.78,1.842v10.382c0,0.72-0.26,1.329-0.78,1.826c-0.509,0.508-1.125,0.762-1.849,0.762H3.133
	c-0.713,0-1.335-0.254-1.865-0.762c-0.509-0.507-0.764-1.116-0.764-1.826V7.019z"/>
<path style="fill:none;stroke:#FFFFFF;stroke-width:0.439;stroke-miterlimit:10;" d="M7.672,11.571c0,1.614,0.571,2.989,1.712,4.125
	c1.141,1.137,2.532,1.705,4.172,1.705c1.62,0,3.001-0.568,4.142-1.705c1.141-1.136,1.712-2.511,1.712-4.125
	c0-1.624-0.571-3.004-1.712-4.141c-1.131-1.146-2.512-1.72-4.142-1.72c-1.63,0-3.021,0.574-4.172,1.72
	C8.244,8.567,7.672,9.947,7.672,11.571z"/>
<path style="fill:#FFFFFF;" d="M10.301,11.571c0-0.893,0.316-1.664,0.948-2.314c0.621-0.639,1.39-0.959,2.307-0.959
	c0.907,0,1.676,0.32,2.308,0.959c0.632,0.65,0.948,1.421,0.948,2.314c0,0.883-0.316,1.649-0.948,2.299
	c-0.632,0.629-1.401,0.943-2.308,0.943c-0.907,0-1.676-0.314-2.307-0.943C10.617,13.22,10.301,12.454,10.301,11.571"/>
<path style="fill:#FFFFFF;" d="M21.764,7.4c-0.122,0.122-0.217,0.261-0.283,0.419c-0.066,0.157-0.099,0.319-0.099,0.487
	c0,0.167,0.03,0.33,0.092,0.487c0.061,0.157,0.158,0.302,0.29,0.434c0.132,0.132,0.277,0.229,0.436,0.289
	c0.158,0.061,0.321,0.091,0.489,0.091c0.168,0,0.331-0.033,0.489-0.099s0.298-0.16,0.42-0.281c0.255-0.264,0.382-0.571,0.382-0.921
	c0-0.35-0.127-0.652-0.382-0.906s-0.558-0.381-0.909-0.381C22.337,7.019,22.029,7.146,21.764,7.4"/>
<g>
</g>
<g>
</g>
<g>
</g>
<g>
</g>
<g>
</g>
<g>
</g>
<g>
</g>
<g>
</g>
<g>
</g>
<g>
</g>
<g>
</g>
<g>
</g>
<g>
</g>
<g>
</g>
<g>
</g>
</svg>
