<?xml version="1.0" encoding="iso-8859-1"?>
<!-- Generator: Adobe Illustrator 16.2.1, SVG Export Plug-In . SVG Version: 6.00 Build 0)  -->
<!DOCTYPE svg PUBLIC "-//W3C//DTD SVG 1.1//EN" "http://www.w3.org/Graphics/SVG/1.1/DTD/svg11.dtd">
<svg version="1.1" id="Layer_1" xmlns="http://www.w3.org/2000/svg" xmlns:xlink="http://www.w3.org/1999/xlink" x="0px" y="0px"
	 width="177.334px" height="49.333px" viewBox="0 0 177.334 49.333" style="enable-background:new 0 0 177.334 49.333;"
	 xml:space="preserve">
<path style="fill:#5AC8FA;" d="M1.611,8.459H0.292l0.204-0.824h1.403l0.887-2.533H1.323l0.216-0.823h1.535l0.72-2.067h0.851
	L3.914,4.279h2.29l0.72-2.067h0.851L7.044,4.279h1.331L8.159,5.103H6.768L5.869,7.635h1.475L7.128,8.459H5.58l-0.731,2.114H3.998
	l0.743-2.114h-2.29l-0.732,2.114H0.867L1.611,8.459z M5.017,7.635l0.899-2.533H3.638L2.75,7.635H5.017z"/>
<path style="fill:#5AC8FA;" d="M9.626,10.188l-0.371,1.385H8.332l2.35-8.719h0.923l-0.983,3.607c0.6-0.681,1.355-1.194,2.35-1.194
	c1.404,0,2.459,1.039,2.459,2.616c0,1.135-0.456,2.138-1.151,2.831c-0.636,0.632-1.463,1.003-2.327,1.003
	C10.682,11.717,9.975,11,9.626,10.188 M13.572,10.188c0.552-0.562,0.888-1.362,0.888-2.222c0-1.147-0.708-1.887-1.751-1.887
	c-0.66,0-1.332,0.311-1.835,0.824c-0.552,0.55-0.924,1.29-0.924,2.079c0,1.075,0.78,1.922,1.919,1.922
	C12.529,10.904,13.129,10.618,13.572,10.188"/>
<path style="fill:#5AC8FA;" d="M17.545,8.803c-0.012,0.083-0.012,0.167-0.012,0.25c0,1.123,0.72,1.864,1.871,1.864
	c0.804,0,1.343-0.275,1.907-0.729l0.48,0.609c-0.612,0.514-1.343,0.92-2.435,0.92c-1.643,0-2.746-1.063-2.746-2.628
	c0-1.027,0.444-2.054,1.175-2.783c0.636-0.633,1.475-1.039,2.435-1.039c1.571,0,2.398,1.075,2.398,2.365
	c0,0.418-0.084,0.813-0.215,1.171H17.545z M17.666,8.11h3.994c0.036-0.107,0.06-0.263,0.06-0.478c0-0.848-0.48-1.588-1.547-1.588
	c-0.684,0-1.272,0.298-1.727,0.74C18.085,7.142,17.821,7.608,17.666,8.11"/>
<path style="fill:#5AC8FA;" d="M23.33,9.997c0-0.597,0.216-1.099,0.587-1.469c0.492-0.49,1.259-0.764,2.171-0.764
	c0.828,0,1.607,0.166,2.207,0.334l0.035-0.143c0.048-0.18,0.084-0.407,0.084-0.574c0-0.8-0.551-1.254-1.679-1.254
	c-0.659,0-1.199,0.131-1.751,0.323l-0.155-0.765c0.612-0.227,1.247-0.37,2.05-0.37c1.559,0,2.435,0.716,2.435,1.911
	c0,0.263-0.048,0.561-0.132,0.848l-0.935,3.5h-0.9l0.264-0.968c-0.575,0.657-1.331,1.099-2.315,1.099
	C24.253,11.705,23.33,11.096,23.33,9.997 M28.02,9.149l0.12-0.43c-0.54-0.156-1.247-0.275-2.015-0.275
	c-0.636,0-1.14,0.191-1.463,0.514c-0.264,0.251-0.396,0.573-0.396,0.932c0,0.657,0.516,1.098,1.319,1.098
	C26.627,10.988,27.719,10.236,28.02,9.149"/>
<path style="fill:#5AC8FA;" d="M30.709,9.794c0-0.286,0.072-0.633,0.156-0.956l0.911-3.44H32.7l-0.948,3.5
	c-0.048,0.203-0.084,0.49-0.084,0.693c0,0.812,0.528,1.29,1.379,1.29c0.96,0,1.931-0.824,2.243-2.007l0.935-3.476h0.924
	l-1.655,6.176h-0.923l0.275-1.003c-0.563,0.633-1.223,1.134-2.17,1.134C31.488,11.705,30.709,10.964,30.709,9.794"/>
<path style="fill:#5AC8FA;" d="M38.28,10.463c0-0.215,0.036-0.454,0.084-0.645l0.971-3.608h-0.851l0.215-0.812h0.864l0.504-1.863
	h0.911l-0.503,1.863h1.954L42.213,6.21h-1.954l-0.96,3.56c-0.024,0.144-0.048,0.322-0.048,0.454c0,0.43,0.324,0.633,0.852,0.633
	c0.276,0,0.575-0.06,0.899-0.191l-0.228,0.836c-0.323,0.131-0.623,0.179-0.983,0.179C38.903,11.681,38.28,11.263,38.28,10.463"/>
<path style="fill:#5AC8FA;" d="M44.135,5.398h0.924l-1.667,6.175h-0.924L44.135,5.398z M44.711,3.033h1.055L45.49,4.048h-1.055
	L44.711,3.033z"/>
<path style="fill:#5AC8FA;" d="M47.351,6.21h-0.852l0.216-0.812h0.852l0.192-0.717c0.155-0.585,0.371-0.991,0.683-1.302
	c0.372-0.37,0.864-0.549,1.451-0.549c0.48,0,0.912,0.096,1.236,0.263l-0.216,0.788c-0.36-0.167-0.66-0.251-1.02-0.251
	c-0.587,0-1.031,0.359-1.247,1.171L48.49,5.398h2.027L50.289,6.21h-2.015l-1.451,5.363H45.9L47.351,6.21z"/>
<path style="fill:#5AC8FA;" d="M50.544,9.794c0-0.286,0.072-0.633,0.156-0.956l0.911-3.44h0.924l-0.948,3.5
	c-0.048,0.203-0.084,0.49-0.084,0.693c0,0.812,0.528,1.29,1.379,1.29c0.96,0,1.931-0.824,2.243-2.007l0.935-3.476h0.924
	l-1.655,6.176h-0.923l0.275-1.003c-0.563,0.633-1.223,1.134-2.17,1.134C51.323,11.705,50.544,10.964,50.544,9.794"/>
<polygon style="fill:#5AC8FA;" points="59.842,2.854 60.765,2.854 58.415,11.574 57.491,11.574 "/>
<polygon style="fill:#FFFFFF;" points="65.915,5.303 66.887,5.303 67.582,10.428 71.012,5.303 72.055,5.303 67.726,11.526 
	66.911,11.526 "/>
<path style="fill:#FFFFFF;" d="M73.606,5.303h0.924l-1.667,6.175h-0.924L73.606,5.303z M74.182,2.938h1.055l-0.276,1.015h-1.055
	L74.182,2.938z"/>
<path style="fill:#FFFFFF;" d="M75.047,9.901c0-0.597,0.216-1.099,0.587-1.469c0.492-0.49,1.259-0.764,2.171-0.764
	c0.828,0,1.607,0.166,2.207,0.334l0.035-0.143c0.048-0.18,0.084-0.407,0.084-0.574c0-0.8-0.551-1.254-1.679-1.254
	c-0.659,0-1.199,0.131-1.751,0.323l-0.155-0.765c0.612-0.227,1.247-0.37,2.05-0.37c1.559,0,2.435,0.716,2.435,1.911
	c0,0.263-0.048,0.561-0.132,0.848l-0.935,3.5h-0.9l0.264-0.968c-0.575,0.657-1.331,1.099-2.315,1.099
	C75.971,11.609,75.047,11,75.047,9.901 M79.736,9.053l0.12-0.43c-0.54-0.155-1.247-0.275-2.015-0.275
	c-0.636,0-1.14,0.192-1.463,0.514c-0.264,0.251-0.396,0.573-0.396,0.932c0,0.657,0.516,1.098,1.319,1.098
	C78.344,10.893,79.437,10.14,79.736,9.053"/>
<g>
	<defs>
		<rect id="SVGID_1_" x="86.734" y="-3.566" width="19.999" height="19.918"/>
	</defs>
	<clipPath id="SVGID_2_">
		<use xlink:href="#SVGID_1_"  style="overflow:visible;"/>
	</clipPath>
</g>
<path style="fill:#FFFFFF;" d="M103.761,1.946c-0.626,0.276-1.3,0.463-2.006,0.547c0.722-0.43,1.276-1.111,1.536-1.923
	c-0.676,0.399-1.422,0.688-2.219,0.843c-0.636-0.676-1.545-1.098-2.55-1.098c-1.928,0-3.492,1.558-3.492,3.477
	c0,0.273,0.03,0.538,0.09,0.792c-2.903-0.145-5.477-1.528-7.201-3.633c-0.3,0.515-0.473,1.112-0.473,1.749
	c0,1.205,0.617,2.27,1.555,2.894c-0.573-0.017-1.112-0.175-1.583-0.434v0.043c0,1.685,1.204,3.091,2.803,3.409
	C89.927,8.694,89.62,8.735,89.3,8.735c-0.225,0-0.445-0.021-0.657-0.062c0.444,1.381,1.734,2.387,3.263,2.414
	c-1.196,0.933-2.702,1.488-4.339,1.488c-0.282,0-0.56-0.015-0.833-0.048c1.546,0.986,3.382,1.562,5.355,1.562
	c6.426,0,9.939-5.298,9.939-9.893c0-0.151-0.003-0.302-0.01-0.45C102.701,3.256,103.294,2.643,103.761,1.946"/>
<g>
</g>
<g>
</g>
<g>
</g>
<g>
</g>
<g>
</g>
<g>
</g>
<g>
</g>
<g>
</g>
<g>
</g>
<g>
</g>
<g>
</g>
<g>
</g>
<g>
</g>
<g>
</g>
<g>
</g>
</svg>
