<?xml version="1.0" encoding="iso-8859-1"?>
<!-- Generator: Adobe Illustrator 16.2.1, SVG Export Plug-In . SVG Version: 6.00 Build 0)  -->
<!DOCTYPE svg PUBLIC "-//W3C//DTD SVG 1.1//EN" "http://www.w3.org/Graphics/SVG/1.1/DTD/svg11.dtd">
<svg version="1.1" id="Layer_1" xmlns="http://www.w3.org/2000/svg" xmlns:xlink="http://www.w3.org/1999/xlink" x="0px" y="0px"
	 width="12.021px" height="21.507px" viewBox="0 0 12.021 21.507" style="enable-background:new 0 0 12.021 21.507;"
	 xml:space="preserve">
<path style="fill:none;stroke:#FFFFFF;stroke-width:1.349;stroke-miterlimit:10;" d="M0.674,6.069c0-1.489,0.521-2.761,1.563-3.814
	c1.043-1.054,2.3-1.581,3.773-1.581c1.473,0,2.731,0.527,3.773,1.581c1.042,1.053,1.563,2.325,1.563,3.814
	c0,0.745-0.142,1.458-0.427,2.139L6.01,19.778L1.144,8.271C0.998,7.92,0.882,7.564,0.799,7.203C0.716,6.84,0.674,6.463,0.674,6.069z
	"/>
<path style="fill:#FFFFFF;" d="M4.124,4.162C3.603,4.689,3.342,5.325,3.342,6.069c0,0.745,0.261,1.381,0.782,1.907
	c0.521,0.527,1.15,0.791,1.886,0.791c0.737,0,1.366-0.264,1.887-0.791C8.418,7.45,8.679,6.814,8.679,6.069
	c0-0.744-0.261-1.38-0.782-1.907c-0.521-0.527-1.15-0.79-1.887-0.79C5.274,3.372,4.645,3.635,4.124,4.162"/>
<g>
</g>
<g>
</g>
<g>
</g>
<g>
</g>
<g>
</g>
<g>
</g>
<g>
</g>
<g>
</g>
<g>
</g>
<g>
</g>
<g>
</g>
<g>
</g>
<g>
</g>
<g>
</g>
<g>
</g>
</svg>
