<?xml version="1.0" encoding="iso-8859-1"?>
<!-- Generator: Adobe Illustrator 16.2.1, SVG Export Plug-In . SVG Version: 6.00 Build 0)  -->
<!DOCTYPE svg PUBLIC "-//W3C//DTD SVG 1.1//EN" "http://www.w3.org/Graphics/SVG/1.1/DTD/svg11.dtd">
<svg version="1.1" id="Layer_1" xmlns="http://www.w3.org/2000/svg" xmlns:xlink="http://www.w3.org/1999/xlink" x="0px" y="0px"
	 width="41px" height="41px" viewBox="0 0 41 41" style="enable-background:new 0 0 41 41;" xml:space="preserve">
<path style="fill:#FFFFFF;" d="M23.86,15.044c0-1.84-1.439-3.28-3.32-3.28c-1.76,0-3.24,1.44-3.24,3.28s1.48,3.399,3.24,3.399
	C22.421,18.444,23.86,16.884,23.86,15.044"/>
<path style="fill:#FFFFFF;" d="M28.105,20.85c-3.15-4.512-7.372-10.104-6.102-16.037c-0.422,0.651-0.914,1.451-1.556,2.322
	C16.153,12.967,18.5,18.148,17.896,21c-0.374-2.062-1.357-3.893-2.665-5.542c-5.497,9.724-9.567,21.589,4.961,21.729
	C30.789,37.297,34.006,29.334,28.105,20.85 M20.808,34.886c-4.886,0.054-6.368-4.084-3.647-8.493
	c1.451-2.347,3.396-5.251,2.814-8.332C22.15,21.776,30.559,34.782,20.808,34.886"/>
<path style="fill:#FFFFFF;" d="M20.615,41c-11.027,0-20-8.972-20-20s8.973-20,20-20c11.028,0,20,8.972,20,20S31.643,41,20.615,41
	 M20.615,2.905C10.637,2.905,2.52,11.023,2.52,21c0,9.979,8.117,18.095,18.095,18.095c9.979,0,18.094-8.116,18.094-18.095
	C38.709,11.023,30.594,2.905,20.615,2.905"/>
<g>
</g>
<g>
</g>
<g>
</g>
<g>
</g>
<g>
</g>
<g>
</g>
</svg>
