<?xml version="1.0" encoding="iso-8859-1"?>
<!-- Generator: Adobe Illustrator 16.2.1, SVG Export Plug-In . SVG Version: 6.00 Build 0)  -->
<!DOCTYPE svg PUBLIC "-//W3C//DTD SVG 1.1//EN" "http://www.w3.org/Graphics/SVG/1.1/DTD/svg11.dtd">
<svg version="1.1" id="Layer_1" xmlns="http://www.w3.org/2000/svg" xmlns:xlink="http://www.w3.org/1999/xlink" x="0px" y="0px"
	 width="25px" height="25px" viewBox="0 0 25 25" style="enable-background:new 0 0 25 25;"
	 xml:space="preserve">
<path style="fill:none;stroke:#00C4B3;stroke-width:1;stroke-miterlimit:10;" d="M6.454,2.097
	C8.299,1.032,10.305,0.5,12.472,0.5s4.167,0.532,6.002,1.597c1.834,1.065,3.293,2.517,4.376,4.356s1.626,3.85,1.626,6.033
	c0,2.184-0.543,4.195-1.626,6.034s-2.542,3.291-4.376,4.356c-1.835,1.064-3.835,1.597-6.002,1.597s-4.173-0.533-6.018-1.597
	c-1.845-1.065-3.299-2.517-4.361-4.356S0.5,14.669,0.5,12.485c0-2.183,0.531-4.194,1.593-6.033S4.609,3.162,6.454,2.097z"/>
<polygon style="fill:#00C4B3;" points="5.397,11.792 6.934,10.256 11.083,14.421 18.042,7.479 19.578,9.015 11.078,17.493 "/>
<g>
</g>
<g>
</g>
<g>
</g>
<g>
</g>
<g>
</g>
<g>
</g>
<g>
</g>
<g>
</g>
<g>
</g>
<g>
</g>
<g>
</g>
<g>
</g>
<g>
</g>
<g>
</g>
<g>
</g>
</svg>
