<?xml version="1.0" encoding="iso-8859-1"?>
<!-- Generator: Adobe Illustrator 16.2.1, SVG Export Plug-In . SVG Version: 6.00 Build 0)  -->
<!DOCTYPE svg PUBLIC "-//W3C//DTD SVG 1.1//EN" "http://www.w3.org/Graphics/SVG/1.1/DTD/svg11.dtd">
<svg version="1.1" id="Layer_1" xmlns="http://www.w3.org/2000/svg" xmlns:xlink="http://www.w3.org/1999/xlink" x="0px" y="0px"
	 width="40px" height="40px" viewBox="0 0 40 40" style="enable-background:new 0 0 40 40;" xml:space="preserve">
<path style="fill:#007AFF;" d="M20,40C8.973,40,0,31.028,0,19.999C0,8.971,8.973,0,20,0s20,8.971,20,19.999
	C40,31.028,31.027,40,20,40 M20,0.966c-10.495,0-19.033,8.539-19.033,19.033c0,10.496,8.538,19.034,19.033,19.034
	s19.034-8.538,19.034-19.034C39.034,9.505,30.495,0.966,20,0.966"/>
<path style="fill:#007AFF;" d="M15.452,13.866c0.827,0,1.499-0.67,1.499-1.498V9.372c0-0.83-0.672-1.499-1.499-1.499
	s-1.497,0.669-1.497,1.499v2.996C13.955,13.196,14.625,13.866,15.452,13.866"/>
<path style="fill:#007AFF;" d="M24.44,13.866c0.828,0,1.498-0.67,1.498-1.498V9.372c0-0.83-0.67-1.499-1.498-1.499
	c-0.826,0-1.497,0.669-1.497,1.499v2.996C22.943,13.196,23.614,13.866,24.44,13.866"/>
<path style="fill:#007AFF;" d="M27.654,10.868c-0.074,0-0.144,0.017-0.218,0.022v1.512c0,1.656-1.341,2.996-2.996,2.996
	c-0.373,0-0.726-0.077-1.058-0.202c-1.132-0.428-1.939-1.512-1.939-2.794v-1.534h-2.995v1.534c0,1.282-0.806,2.367-1.938,2.794
	c-0.331,0.125-0.686,0.202-1.059,0.202c-1.654,0-2.997-1.34-2.997-2.996v-1.512c-0.072-0.005-0.143-0.022-0.217-0.022
	c-2.362,0-4.276,1.915-4.276,4.277v12.421c0,2.363,1.914,4.276,4.276,4.276h15.416c2.362,0,4.277-1.913,4.277-4.276V15.146
	C31.932,12.783,30.017,10.868,27.654,10.868 M12.455,19.858h2.996v2.995h-2.996V19.858z M15.452,28.847h-2.996v-2.996h2.996V28.847z
	 M21.443,28.847h-2.995v-2.996h2.995V28.847z M21.443,22.859h-2.995v-2.996h2.995V22.859z M24.44,28.847V25.85h2.996L24.44,28.847z
	 M27.437,22.854H24.44v-2.995h2.996V22.854z"/>
<g>
</g>
<g>
</g>
<g>
</g>
<g>
</g>
<g>
</g>
<g>
</g>
<g>
</g>
<g>
</g>
<g>
</g>
<g>
</g>
<g>
</g>
<g>
</g>
<g>
</g>
<g>
</g>
<g>
</g>
</svg>
