<?xml version="1.0" encoding="iso-8859-1"?>
<!-- Generator: Adobe Illustrator 16.2.1, SVG Export Plug-In . SVG Version: 6.00 Build 0)  -->
<!DOCTYPE svg PUBLIC "-//W3C//DTD SVG 1.1//EN" "http://www.w3.org/Graphics/SVG/1.1/DTD/svg11.dtd">
<svg version="1.1" id="Layer_1" xmlns="http://www.w3.org/2000/svg" xmlns:xlink="http://www.w3.org/1999/xlink" x="0px" y="0px"
	 width="40px" height="40px" viewBox="0 0 40 40" style="enable-background:new 0 0 40 40;" xml:space="preserve">
<path style="fill:#8E8E93;" d="M20.644,9.605c0,1.326,1.074,2.402,2.399,2.402c1.328,0,2.402-1.076,2.402-2.402
	c0-1.325-1.074-2.4-2.402-2.4C21.718,7.205,20.644,8.28,20.644,9.605"/>
<path style="fill:#8E8E93;" d="M13.885,20.841l-2.175,3.145c0,0-3.625,0.253-4.921,0.328C5.796,24.372,5.2,24.743,5.2,25.386
	c0,0.644,0.502,1.005,1.933,1.12c1.206,0.096,5.329,0.348,5.329,0.348h0.013c0.482,0,0.986-0.256,1.317-0.744l2.122-3.03"/>
<path style="fill:#8E8E93;" d="M22.159,23.451l-3.683-2.524l3.748-6.004c0.214-0.32,0.363-1.175,0.044-1.39l-2.105-1.413
	c-0.146-0.126-0.322-0.224-0.525-0.268l-4.21-0.915c-0.325-0.067-0.661-0.004-0.936,0.181l-3.462,2.674
	c-0.568,0.493-1.114,1.107-0.739,1.662c0.24,0.357,1.062,0.153,1.493-0.107l3.633-1.93l2.394,0.521l-3.226,4.794
	c-0.74,1.281-0.986,2.27,0.345,3.403l4.585,3.032l-1.917,4.731c-0.724,1.734-0.593,2.624-0.099,2.833
	c0.496,0.21,1.225-0.03,2.252-1.918l2.915-5.569C22.952,24.602,22.738,23.849,22.159,23.451"/>
<path style="fill:#8E8E93;" d="M21.222,16.824l0.929,2.229c0.173,0.39,0.566,0.767,0.988,0.817c0,0,2.952-0.064,3.758-0.108
	c0.847-0.046,1.795-0.205,1.816-0.784c0.03-0.831-0.754-0.893-1.517-0.947l-2.978-0.253l-1.764-3.999"/>
<path style="fill:#FFFFFF;" d="M26.731,9.605c0,1.326,1.073,2.402,2.399,2.402c1.328,0,2.401-1.076,2.401-2.402
	c0-1.325-1.073-2.4-2.401-2.4C27.805,7.205,26.731,8.28,26.731,9.605"/>
<path style="fill:#FFFFFF;" d="M19.973,20.841l-2.175,3.145c0,0-3.625,0.253-4.921,0.328c-0.993,0.059-1.59,0.43-1.59,1.072
	c0,0.644,0.502,1.005,1.934,1.12c1.206,0.096,5.329,0.348,5.329,0.348h0.013c0.482,0,0.986-0.256,1.317-0.744l2.122-3.03"/>
<path style="fill:#FFFFFF;" d="M28.247,23.451l-3.683-2.524l3.747-6.004c0.215-0.32,0.363-1.175,0.045-1.39l-2.105-1.413
	c-0.146-0.126-0.323-0.224-0.526-0.268l-4.21-0.915c-0.324-0.067-0.66-0.004-0.935,0.181l-3.462,2.674
	c-0.569,0.493-1.114,1.107-0.739,1.662c0.24,0.357,1.062,0.153,1.493-0.107l3.633-1.93l2.394,0.521l-3.227,4.794
	c-0.74,1.281-0.985,2.27,0.345,3.403l4.586,3.032l-1.918,4.731c-0.723,1.734-0.593,2.624-0.098,2.833
	c0.496,0.21,1.225-0.03,2.253-1.918l2.914-5.569C29.04,24.602,28.826,23.849,28.247,23.451"/>
<path style="fill:#FFFFFF;" d="M27.31,16.824l0.929,2.229c0.173,0.39,0.566,0.767,0.988,0.817c0,0,2.952-0.064,3.758-0.108
	c0.846-0.046,1.795-0.205,1.815-0.784c0.031-0.831-0.754-0.893-1.516-0.947l-2.978-0.253l-1.765-3.999"/>
<path style="fill:#FFFFFF;" d="M20,40C8.973,40,0,31.027,0,20C0,8.972,8.973,0,20,0c11.028,0,20,8.972,20,20
	C40,31.027,31.028,40,20,40 M20,1.904C10.022,1.904,1.905,10.022,1.905,20S10.022,38.095,20,38.095
	c9.979,0,18.095-8.117,18.095-18.095S29.979,1.904,20,1.904"/>
<g>
</g>
<g>
</g>
<g>
</g>
<g>
</g>
<g>
</g>
<g>
</g>
<g>
</g>
<g>
</g>
<g>
</g>
<g>
</g>
<g>
</g>
<g>
</g>
<g>
</g>
<g>
</g>
<g>
</g>
</svg>
