<?xml version="1.0" encoding="iso-8859-1"?>
<!-- Generator: Adobe Illustrator 16.2.1, SVG Export Plug-In . SVG Version: 6.00 Build 0)  -->
<!DOCTYPE svg PUBLIC "-//W3C//DTD SVG 1.1//EN" "http://www.w3.org/Graphics/SVG/1.1/DTD/svg11.dtd">
<svg version="1.1" id="Layer_1" xmlns="http://www.w3.org/2000/svg" xmlns:xlink="http://www.w3.org/1999/xlink" x="0px" y="0px" width="25px" height="25px" viewBox="0 0 25 25" style="enable-background:new 0 0 25 25;"
	 xml:space="preserve">
<path style="fill:none;stroke:#00C4B3;stroke-width:1;stroke-miterlimit:10;" d="M6.454,2.097
	C8.299,1.032,10.305,0.5,12.472,0.5s4.167,0.532,6.002,1.597c1.834,1.065,3.293,2.517,4.376,4.356s1.625,3.85,1.625,6.033
	c0,2.184-0.542,4.195-1.625,6.034s-2.542,3.291-4.376,4.356c-1.835,1.064-3.835,1.597-6.002,1.597s-4.173-0.533-6.018-1.597
	c-1.845-1.065-3.299-2.517-4.361-4.356S0.5,14.669,0.5,12.485c0-2.183,0.531-4.194,1.593-6.033S4.608,3.162,6.454,2.097z"/>
<polygon style="fill:#00C4B3;" points="7.89,17.095 18.617,17.095 17.084,18.632 7.89,18.632 6.358,18.632 6.358,17.095
	6.358,7.876 7.89,6.341 "/>
<polygon style="fill:#00C4B3;" points="9.423,15.559 9.423,12.485 10.955,10.95 12.488,12.485 15.552,9.414 18.617,12.485
	18.617,15.559 "/>
<g>
</g>
<g>
</g>
<g>
</g>
<g>
</g>
<g>
</g>
<g>
</g>
<g>
</g>
<g>
</g>
<g>
</g>
<g>
</g>
<g>
</g>
<g>
</g>
<g>
</g>
<g>
</g>
<g>
</g>
</svg>
