<?xml version="1.0" encoding="iso-8859-1"?>
<!-- Generator: Adobe Illustrator 16.2.1, SVG Export Plug-In . SVG Version: 6.00 Build 0)  -->
<!DOCTYPE svg PUBLIC "-//W3C//DTD SVG 1.1//EN" "http://www.w3.org/Graphics/SVG/1.1/DTD/svg11.dtd">
<svg version="1.1" id="Layer_1" xmlns="http://www.w3.org/2000/svg" xmlns:xlink="http://www.w3.org/1999/xlink" x="0px" y="0px"
	 width="41.395px" height="41.395px" viewBox="0 0 41.395 41.395" style="enable-background:new 0 0 41.395 41.395;"
	 xml:space="preserve">
<path style="fill:#FFFFFF;" d="M31.945,17.619c1.571-1.318,1.775-3.659,0.458-5.23l-1.492-1.778
	c-1.317-1.57-3.659-1.775-5.229-0.457l-8.117,6.811l6.264,7.465L31.945,17.619z"/>
<path style="fill:none;stroke:#FFFFFF;stroke-width:0.999;stroke-miterlimit:10;" d="M17.564,16.965l-8.117,6.811
	c-1.569,1.318-1.774,3.659-0.457,5.23l1.491,1.777c1.318,1.571,3.66,1.776,5.23,0.458l8.116-6.811L17.564,16.965z"/>
<path style="fill:none;stroke:#FFFFFF;stroke-width:0.999;stroke-miterlimit:10;" d="M10.53,3.19C13.639,1.396,17.018,0.5,20.67,0.5
	c3.65,0,7.021,0.897,10.112,2.691c3.091,1.794,5.549,4.241,7.374,7.34c1.824,3.099,2.738,6.488,2.738,10.167
	c0,3.679-0.914,7.068-2.738,10.167c-1.825,3.099-4.283,5.545-7.374,7.34c-3.092,1.794-6.462,2.691-10.112,2.691
	c-3.652,0-7.031-0.897-10.14-2.691c-3.109-1.795-5.559-4.241-7.348-7.34c-1.789-3.099-2.684-6.488-2.684-10.167
	c0-3.679,0.895-7.068,2.684-10.167C4.972,7.432,7.421,4.985,10.53,3.19z"/>
<g>
</g>
<g>
</g>
<g>
</g>
<g>
</g>
<g>
</g>
<g>
</g>
<g>
</g>
<g>
</g>
<g>
</g>
<g>
</g>
<g>
</g>
<g>
</g>
<g>
</g>
<g>
</g>
<g>
</g>
</svg>
