<?xml version="1.0" encoding="iso-8859-1"?>
<!-- Generator: Adobe Illustrator 16.2.1, SVG Export Plug-In . SVG Version: 6.00 Build 0)  -->
<!DOCTYPE svg PUBLIC "-//W3C//DTD SVG 1.1//EN" "http://www.w3.org/Graphics/SVG/1.1/DTD/svg11.dtd">
<svg version="1.1" id="Layer_1" xmlns="http://www.w3.org/2000/svg" xmlns:xlink="http://www.w3.org/1999/xlink" x="0px" y="0px"
	 width="25px" height="25px" viewBox="0 0 25 25" style="enable-background:new 0 0 25 25;"
	 xml:space="preserve">
<path style="fill:#8E8E93;" d="M19.162,10.659c0.932-0.782,1.054-2.172,0.271-3.104L18.548,6.5
	c-0.782-0.932-2.172-1.053-3.104-0.271l-4.816,4.042l3.718,4.43L19.162,10.659z"/>
<path style="fill:none;stroke:#8E8E93;stroke-width:0.999;stroke-miterlimit:10;" d="M10.627,10.271L5.81,14.312
	c-0.933,0.782-1.054,2.172-0.271,3.104l0.885,1.055c0.782,0.932,2.172,1.053,3.104,0.271l4.818-4.042L10.627,10.271z"/>
<path style="fill:none;stroke:#8E8E93;stroke-width:0.999;stroke-miterlimit:10;" d="M6.452,2.097C8.297,1.032,10.303,0.5,12.47,0.5
	s4.167,0.532,6.002,1.597c1.834,1.065,3.293,2.517,4.376,4.356c1.083,1.839,1.625,3.85,1.625,6.033c0,2.183-0.542,4.195-1.625,6.034
	s-2.542,3.291-4.376,4.355c-1.835,1.065-3.835,1.598-6.002,1.598s-4.173-0.533-6.018-1.598c-1.846-1.064-3.3-2.516-4.361-4.355
	c-1.062-1.839-1.592-3.851-1.592-6.034c0-2.183,0.529-4.194,1.592-6.033C3.152,4.613,4.606,3.162,6.452,2.097z"/>
<g>
</g>
<g>
</g>
<g>
</g>
<g>
</g>
<g>
</g>
<g>
</g>
<g>
</g>
<g>
</g>
<g>
</g>
<g>
</g>
<g>
</g>
<g>
</g>
<g>
</g>
<g>
</g>
<g>
</g>
</svg>
