<?xml version="1.0" encoding="iso-8859-1"?>
<!-- Generator: Adobe Illustrator 16.2.1, SVG Export Plug-In . SVG Version: 6.00 Build 0)  -->
<!DOCTYPE svg PUBLIC "-//W3C//DTD SVG 1.1//EN" "http://www.w3.org/Graphics/SVG/1.1/DTD/svg11.dtd">
<svg version="1.1" id="Layer_1" xmlns="http://www.w3.org/2000/svg" xmlns:xlink="http://www.w3.org/1999/xlink" x="0px" y="0px"
	 width="42.396px" height="42.395px" viewBox="0 0 42.396 42.395" style="enable-background:new 0 0 42.396 42.395;"
	 xml:space="preserve">
<path style="fill:none;stroke:#FFFFFF;stroke-miterlimit:10;" d="M21.197,41.895C9.767,41.895,0.5,32.626,0.5,21.197
	C0.5,9.765,9.767,0.5,21.197,0.5s20.698,9.265,20.698,20.697C41.896,32.626,32.628,41.895,21.197,41.895"/>
<path style="fill:#FFFFFF;" d="M30.932,14.263l-6.967-6.967v4.167c0,0.76,0.277,1.416,0.83,1.97c0.554,0.553,1.21,0.83,1.97,0.83
	H30.932z"/>
<path style="fill:#FFFFFF;" d="M26.765,15.63c-1.149,0-2.133-0.406-2.947-1.22c-0.812-0.814-1.22-1.796-1.22-2.947V7.296h-8.335
	c-0.76,0-1.416,0.277-1.97,0.83c-0.553,0.554-0.83,1.21-0.83,1.97v22.203c0,0.76,0.277,1.416,0.83,1.97
	c0.554,0.553,1.21,0.83,1.97,0.83h13.869c0.76,0,1.416-0.277,1.97-0.83c0.554-0.554,0.83-1.21,0.83-1.97V15.63H26.765z
	 M19.332,32.167l-2.147-2.146l-2.126,2.146l-1.323-1.324l2.146-2.126l-2.146-2.147h5.597V32.167z M19.332,22.839h-5.597l2.146-2.147
	l-2.126-2.106l1.324-1.324l2.105,2.106l2.147-2.126V22.839z M28.66,30.843l-1.324,1.324l-2.126-2.146l-2.147,2.146V26.57h5.598
	l-2.126,2.147L28.66,30.843z M23.062,22.839v-5.597l2.147,2.126l2.126-2.106l1.304,1.324l-2.105,2.106l2.126,2.147H23.062z"/>
<g>
</g>
<g>
</g>
<g>
</g>
<g>
</g>
<g>
</g>
<g>
</g>
<g>
</g>
<g>
</g>
<g>
</g>
<g>
</g>
<g>
</g>
<g>
</g>
<g>
</g>
<g>
</g>
<g>
</g>
</svg>
