<?xml version="1.0" encoding="iso-8859-1"?>
<!-- Generator: Adobe Illustrator 16.2.1, SVG Export Plug-In . SVG Version: 6.00 Build 0)  -->
<!DOCTYPE svg PUBLIC "-//W3C//DTD SVG 1.1//EN" "http://www.w3.org/Graphics/SVG/1.1/DTD/svg11.dtd">
<svg version="1.1" id="Layer_1" xmlns="http://www.w3.org/2000/svg" xmlns:xlink="http://www.w3.org/1999/xlink" x="0px" y="0px"
	 width="25.762px" height="25.756px" viewBox="0 0 25.762 25.756" style="enable-background:new 0 0 25.762 25.756;"
	 xml:space="preserve">
<path style="fill:#FFFFFF;" d="M6.965,6.131c0-0.462,0.168-0.861,0.505-1.197c0.336-0.336,0.735-0.505,1.197-0.505h5.065v2.533
	c0,0.699,0.247,1.296,0.742,1.791c0.494,0.494,1.091,0.742,1.79,0.742h2.533v10.13c0,0.462-0.168,0.861-0.504,1.197
	c-0.337,0.336-0.736,0.505-1.198,0.505H8.667c-0.462,0-0.861-0.169-1.197-0.505c-0.337-0.336-0.505-0.735-0.505-1.197V6.131z"/>
<path style="fill:#FFFFFF;" d="M14.563,4.43l4.234,4.233h-2.532c-0.463,0-0.861-0.168-1.197-0.504
	c-0.337-0.337-0.505-0.736-0.505-1.197V4.43z"/>
<path style="fill:none;stroke:#FFFFFF;stroke-width:0.999;stroke-miterlimit:10;" d="M6.649,2.148
	c1.906-1.101,3.977-1.649,6.215-1.649s4.304,0.549,6.199,1.649c1.894,1.1,3.401,2.599,4.52,4.499
	c1.119,1.898,1.679,3.976,1.679,6.23s-0.56,4.332-1.679,6.231c-1.118,1.899-2.626,3.398-4.52,4.499
	c-1.896,1.1-3.961,1.648-6.199,1.648s-4.309-0.549-6.215-1.648c-1.906-1.101-3.407-2.6-4.504-4.499
	C1.05,17.21,0.5,15.133,0.5,12.878s0.55-4.332,1.646-6.23C3.242,4.747,4.743,3.248,6.649,2.148z"/>
<g>
</g>
<g>
</g>
<g>
</g>
<g>
</g>
<g>
</g>
<g>
</g>
<g>
</g>
<g>
</g>
<g>
</g>
<g>
</g>
<g>
</g>
<g>
</g>
<g>
</g>
<g>
</g>
<g>
</g>
</svg>
