<?xml version="1.0" encoding="iso-8859-1"?>
<!-- Generator: Adobe Illustrator 16.2.1, SVG Export Plug-In . SVG Version: 6.00 Build 0)  -->
<!DOCTYPE svg PUBLIC "-//W3C//DTD SVG 1.1//EN" "http://www.w3.org/Graphics/SVG/1.1/DTD/svg11.dtd">
<svg version="1.1" id="Layer_1" xmlns="http://www.w3.org/2000/svg" xmlns:xlink="http://www.w3.org/1999/xlink" x="0px" y="0px"
	 width="25.762px" height="25.757px" viewBox="0 0 25.762 25.757" style="enable-background:new 0 0 25.762 25.757;"
	 xml:space="preserve">
<path style="fill:#FFFFFF;" d="M17.722,18.429v1.71H4.812v-3.228c0.485-0.226,1.066-0.354,1.291-0.45
	c2.002-0.71,2.647-1.323,2.647-2.646c0-0.774-0.614-0.516-0.872-1.969c-0.129-0.581-0.645,0-0.773-1.355
	c0-0.548,0.322-0.678,0.322-0.678s-0.162-0.806-0.227-1.42c-0.064-0.774,0.452-2.774,3.26-2.774c2.775,0,3.291,2,3.227,2.774
	c-0.063,0.614-0.226,1.42-0.226,1.42s0.323,0.13,0.323,0.678c-0.129,1.355-0.646,0.774-0.775,1.355
	c-0.258,1.453-0.871,1.194-0.871,1.969c0,1.323,0.646,1.937,2.646,2.646C16.786,17.202,17.722,17.944,17.722,18.429 M20.949,12.071
	v1.614h-2.42v2.42h-1.614v-2.42h-2.42v-1.614h2.42v-2.42h1.614v2.42H20.949z"/>
<path style="fill:none;stroke:#FFFFFF;stroke-width:0.999;stroke-miterlimit:10;" d="M6.649,2.148
	c1.906-1.1,3.977-1.649,6.215-1.649s4.304,0.55,6.199,1.649c1.894,1.1,3.401,2.599,4.52,4.499c1.119,1.899,1.679,3.976,1.679,6.231
	c0,2.255-0.56,4.332-1.679,6.23c-1.118,1.9-2.626,3.399-4.52,4.499c-1.896,1.101-3.961,1.649-6.199,1.649s-4.309-0.549-6.215-1.649
	c-1.906-1.1-3.407-2.599-4.504-4.499C1.05,17.211,0.5,15.134,0.5,12.879c0-2.256,0.55-4.332,1.646-6.231
	C3.242,4.747,4.743,3.248,6.649,2.148z"/>
<g>
</g>
<g>
</g>
<g>
</g>
<g>
</g>
<g>
</g>
<g>
</g>
<g>
</g>
<g>
</g>
<g>
</g>
<g>
</g>
<g>
</g>
<g>
</g>
<g>
</g>
<g>
</g>
<g>
</g>
</svg>
