<?xml version="1.0" encoding="iso-8859-1"?>
<!-- Generator: Adobe Illustrator 16.2.1, SVG Export Plug-In . SVG Version: 6.00 Build 0)  -->
<!DOCTYPE svg PUBLIC "-//W3C//DTD SVG 1.1//EN" "http://www.w3.org/Graphics/SVG/1.1/DTD/svg11.dtd">
<svg version="1.1" id="Layer_1" xmlns="http://www.w3.org/2000/svg" xmlns:xlink="http://www.w3.org/1999/xlink" x="0px" y="0px"
	 width="37.604px" height="53.695px" viewBox="0 0 37.604 53.695" style="enable-background:new 0 0 37.604 53.695;"
	 xml:space="preserve">
<path style="fill:#007AFF;" d="M0,5.407C0,3.94,0.534,2.672,1.603,1.604C2.672,0.534,3.941,0,5.408,0h16.097v8.048
	c0,2.221,0.786,4.118,2.358,5.69c1.572,1.572,3.469,2.358,5.691,2.358h8.049v32.192c0,1.467-0.535,2.735-1.604,3.804
	s-2.337,1.603-3.804,1.603H5.408c-1.467,0-2.736-0.534-3.805-1.603S0,49.755,0,48.288V5.407z"/>
<path style="fill:#007AFF;" d="M24.146,0l13.457,13.455h-8.049c-1.467,0-2.736-0.534-3.805-1.603
	c-1.068-1.069-1.603-2.337-1.603-3.804V0z"/>
<path style="fill:#FFFFFF;" d="M4.388,30.017l4.146-4.145l-4.107-4.069l2.557-2.557l4.068,4.069l4.146-4.107v10.809H4.388z
	 M4.388,45.476l4.146-4.107l-4.146-4.146h10.81v10.81l-4.146-4.146l-4.107,4.146L4.388,45.476z M22.405,30.017V19.208l4.146,4.107
	l4.108-4.069l2.518,2.557l-4.069,4.069l4.108,4.145H22.405z M26.551,43.887l-4.146,4.146v-10.81h10.811l-4.108,4.146l4.108,4.107
	l-2.557,2.557L26.551,43.887z"/>
<g>
</g>
<g>
</g>
<g>
</g>
<g>
</g>
<g>
</g>
<g>
</g>
<g>
</g>
<g>
</g>
<g>
</g>
<g>
</g>
<g>
</g>
<g>
</g>
<g>
</g>
<g>
</g>
<g>
</g>
</svg>
