<?xml version="1.0" encoding="iso-8859-1"?>
<!-- Generator: Adobe Illustrator 16.2.1, SVG Export Plug-In . SVG Version: 6.00 Build 0)  -->
<!DOCTYPE svg PUBLIC "-//W3C//DTD SVG 1.1//EN" "http://www.w3.org/Graphics/SVG/1.1/DTD/svg11.dtd">
<svg version="1.1" id="Layer_1" xmlns="http://www.w3.org/2000/svg" xmlns:xlink="http://www.w3.org/1999/xlink" x="0px" y="0px"
	 width="39.958px" height="39.955px" viewBox="0 0 39.958 39.955" style="enable-background:new 0 0 39.958 39.955;"
	 xml:space="preserve">
<path style="fill:#00C4B3;" d="M19.979,39.955C8.946,39.955,0,31.01,0,19.977C0,8.944,8.946,0,19.979,0
	c11.035,0,19.979,8.944,19.979,19.977C39.958,31.01,31.014,39.955,19.979,39.955"/>
<path style="fill:#FFFFFF;" d="M31.153,12.649c0.966-1.343,0.659-3.215-0.685-4.181c-1.34-0.964-3.215-0.658-4.183,0.685
	l-9.032,12.566l-3.566-5.053c-0.956-1.354-2.824-1.676-4.177-0.722c-1.353,0.955-1.673,2.824-0.723,4.175l8.424,11.93L31.153,12.649
	z"/>
<g>
</g>
<g>
</g>
<g>
</g>
<g>
</g>
<g>
</g>
<g>
</g>
<g>
</g>
<g>
</g>
<g>
</g>
<g>
</g>
<g>
</g>
<g>
</g>
<g>
</g>
<g>
</g>
<g>
</g>
</svg>
