<?xml version="1.0" encoding="iso-8859-1"?>
<!-- Generator: Adobe Illustrator 16.2.1, SVG Export Plug-In . SVG Version: 6.00 Build 0)  -->
<!DOCTYPE svg PUBLIC "-//W3C//DTD SVG 1.1//EN" "http://www.w3.org/Graphics/SVG/1.1/DTD/svg11.dtd">
<svg version="1.1" id="Layer_1" xmlns="http://www.w3.org/2000/svg" xmlns:xlink="http://www.w3.org/1999/xlink" x="0px" y="0px"
	 width="41px" height="41px" viewBox="0 0 41 41" style="enable-background:new 0 0 41 41;" xml:space="preserve">
<path style="fill:#FFFFFF;" d="M24.9,23.886c-3.6,5.16-4.119,9.52-4.119,9.52c-0.082,0.359-0.4,0.359-0.48,0
	c0,0-0.681-4.359-4.2-9.52c-2.92-4.081-4.24-5.681-4.24-9.001c0-4.76,3.8-8.562,8.6-8.562c4.762,0,8.681,3.802,8.681,8.562
	C29.141,18.205,26.58,21.444,24.9,23.886 M23.86,15.044c0-1.84-1.439-3.28-3.32-3.28c-1.76,0-3.24,1.44-3.24,3.28
	s1.48,3.399,3.24,3.399C22.421,18.444,23.86,16.884,23.86,15.044"/>
<path style="fill:#FFFFFF;" d="M20.5,39.999c-11.027,0-20-8.971-20-20c0-11.028,8.973-20,20-20c11.028,0,20,8.972,20,20
	C40.5,31.028,31.528,39.999,20.5,39.999 M20.5,1.905C10.522,1.905,2.405,10.022,2.405,20c0,9.978,8.117,18.095,18.095,18.095
	c9.979,0,18.095-8.117,18.095-18.095C38.595,10.022,30.479,1.905,20.5,1.905"/>
<g>
</g>
<g>
</g>
<g>
</g>
<g>
</g>
<g>
</g>
<g>
</g>
</svg>
