<?xml version="1.0" encoding="iso-8859-1"?>
<!-- Generator: Adobe Illustrator 16.2.1, SVG Export Plug-In . SVG Version: 6.00 Build 0)  -->
<!DOCTYPE svg PUBLIC "-//W3C//DTD SVG 1.1//EN" "http://www.w3.org/Graphics/SVG/1.1/DTD/svg11.dtd">
<svg version="1.1" id="Layer_1" xmlns="http://www.w3.org/2000/svg" xmlns:xlink="http://www.w3.org/1999/xlink" x="0px" y="0px"
	 width="41.396px" height="41.392px" viewBox="0 0 41.396 41.392" style="enable-background:new 0 0 41.396 41.392;"
	 xml:space="preserve">
<path style="fill:#FFFFFF;" d="M20.697,41.392C9.285,41.392,0,32.107,0,20.695C0,9.284,9.285,0,20.697,0
	C32.11,0,41.396,9.284,41.396,20.695C41.396,32.107,32.11,41.392,20.697,41.392 M20.697,1C9.836,1,1,9.835,1,20.695
	c0,10.861,8.836,19.697,19.697,19.697c10.862,0,19.698-8.836,19.698-19.697C40.396,9.835,31.56,1,20.697,1"/>
<polygon style="fill:#FFFFFF;" points="25.697,8.696 16.697,8.696 16.697,11.696 20.697,11.696 25.697,16.696 25.697,28.696 
	30.697,28.696 30.697,13.696 25.697,13.696 "/>
<polygon style="fill:#FFFFFF;" points="20.697,16.696 24.283,16.696 20.697,13.11 "/>
<polygon style="fill:#FFFFFF;" points="26.697,12.696 30.283,12.696 26.697,9.11 "/>
<polygon style="fill:#FFFFFF;" points="19.697,12.696 10.697,12.696 10.697,32.696 24.697,32.696 24.697,17.696 19.697,17.696 "/>
<g>
</g>
<g>
</g>
<g>
</g>
<g>
</g>
<g>
</g>
<g>
</g>
<g>
</g>
<g>
</g>
<g>
</g>
<g>
</g>
<g>
</g>
<g>
</g>
<g>
</g>
<g>
</g>
<g>
</g>
</svg>
