<?xml version="1.0" encoding="iso-8859-1"?>
<!-- Generator: Adobe Illustrator 16.2.1, SVG Export Plug-In . SVG Version: 6.00 Build 0)  -->
<!DOCTYPE svg PUBLIC "-//W3C//DTD SVG 1.1//EN" "http://www.w3.org/Graphics/SVG/1.1/DTD/svg11.dtd">
<svg version="1.1" id="Layer_1" xmlns="http://www.w3.org/2000/svg" xmlns:xlink="http://www.w3.org/1999/xlink" x="0px" y="0px"
	 width="40.395px" height="40.39px" viewBox="0 0 40.395 40.39" style="enable-background:new 0 0 40.395 40.39;"
	 xml:space="preserve">
<path style="fill:#D61C5C;" d="M20.197,40.39c11.154,0,20.198-9.043,20.198-20.195C40.395,9.041,31.351,0,20.197,0
	C9.043,0,0,9.041,0,20.195C0,31.347,9.043,40.39,20.197,40.39"/>
<path style="fill:#FFFFFF;" d="M17.427,8.712c0-3.945,5.5-3.586,5.5,0v14.026c0,3.108-5.5,3.427-5.5,0V8.712z"/>
<path style="fill:#FFFFFF;" d="M17.148,30.788c0-3.387,6.097-3.427,6.097,0v0.756c0,3.905-6.097,3.984-6.097,0V30.788z"/>
<g>
</g>
<g>
</g>
<g>
</g>
<g>
</g>
<g>
</g>
<g>
</g>
<g>
</g>
<g>
</g>
<g>
</g>
<g>
</g>
<g>
</g>
<g>
</g>
<g>
</g>
<g>
</g>
<g>
</g>
</svg>
