<?xml version="1.0" encoding="iso-8859-1"?>
<!-- Generator: Adobe Illustrator 16.2.1, SVG Export Plug-In . SVG Version: 6.00 Build 0)  -->
<!DOCTYPE svg PUBLIC "-//W3C//DTD SVG 1.1//EN" "http://www.w3.org/Graphics/SVG/1.1/DTD/svg11.dtd">
<svg version="1.1" id="Layer_1" xmlns="http://www.w3.org/2000/svg" xmlns:xlink="http://www.w3.org/1999/xlink" x="0px" y="0px" width="25px" height="25px" viewBox="0 0 25 25" style="enable-background:new 0 0 25 25;"
	 xml:space="preserve">
<path style="fill:none;stroke:#00C4B3;stroke-width:1;stroke-miterlimit:10;" d="M6.454,2.097
	C8.298,1.032,10.305,0.5,12.472,0.5s4.167,0.532,6.002,1.597c1.834,1.065,3.293,2.517,4.376,4.356s1.625,3.85,1.625,6.033
	c0,2.184-0.542,4.195-1.625,6.034s-2.542,3.291-4.376,4.356c-1.835,1.064-3.835,1.597-6.002,1.597s-4.173-0.533-6.018-1.597
	c-1.845-1.065-3.299-2.517-4.361-4.356C1.031,16.681,0.5,14.669,0.5,12.485c0-2.183,0.531-4.194,1.593-6.033
	C3.154,4.614,4.608,3.162,6.454,2.097z"/>
<polygon style="fill:#00C4B3;" points="12.471,15.615 18.973,10.228 16.075,10.228 16.075,2.968 8.867,2.968 8.867,10.228
	6.003,10.228 "/>
<path style="fill:#00C4B3;" d="M10.846,21.326c0.451,0.452,0.998,0.678,1.641,0.678c0.644,0,1.191-0.226,1.641-0.678
	c0.451-0.452,0.676-0.995,0.676-1.629c0-0.635-0.225-1.183-0.676-1.646c-0.45-0.462-0.997-0.694-1.641-0.694
	c-0.643,0-1.19,0.232-1.641,0.694c-0.451,0.463-0.676,1.011-0.676,1.646C10.17,20.332,10.396,20.875,10.846,21.326"/>
<g>
</g>
<g>
</g>
<g>
</g>
<g>
</g>
<g>
</g>
<g>
</g>
<g>
</g>
<g>
</g>
<g>
</g>
<g>
</g>
<g>
</g>
<g>
</g>
<g>
</g>
<g>
</g>
<g>
</g>
</svg>
