<?xml version="1.0" encoding="iso-8859-1"?>
<!-- Generator: Adobe Illustrator 16.2.1, SVG Export Plug-In . SVG Version: 6.00 Build 0)  -->
<!DOCTYPE svg PUBLIC "-//W3C//DTD SVG 1.1//EN" "http://www.w3.org/Graphics/SVG/1.1/DTD/svg11.dtd">
<svg version="1.1" id="Layer_1" xmlns="http://www.w3.org/2000/svg" xmlns:xlink="http://www.w3.org/1999/xlink" x="0px" y="0px"
	 width="25.762px" height="25.757px" viewBox="0 0 25.762 25.757" style="enable-background:new 0 0 25.762 25.757;"
	 xml:space="preserve">
<path style="fill:none;stroke:#FFFFFF;stroke-width:0.999;stroke-miterlimit:10;" d="M6.649,2.149
	c1.906-1.101,3.977-1.65,6.215-1.65s4.304,0.55,6.199,1.65c1.894,1.1,3.401,2.599,4.52,4.499c1.119,1.898,1.679,3.976,1.679,6.23
	s-0.56,4.332-1.679,6.231c-1.118,1.899-2.626,3.398-4.52,4.499c-1.896,1.1-3.961,1.648-6.199,1.648s-4.309-0.549-6.215-1.648
	c-1.906-1.101-3.407-2.6-4.504-4.499C1.05,17.211,0.5,15.134,0.5,12.879s0.55-4.332,1.646-6.23C3.242,4.748,4.743,3.249,6.649,2.149
	z"/>
<path style="fill:#FFFFFF;" d="M20.011,11.996c0.576-0.666,0.931-1.434,1.063-2.299c0.044-0.245,0.066-0.489,0.066-0.733
	c0-0.6-0.122-1.178-0.366-1.733l-2.326,2.767l-2.359-0.435l-0.731-2.266l2.326-2.699c-0.376-0.089-0.742-0.133-1.096-0.133
	l-1.363,0.2c-0.82,0.244-1.519,0.7-2.094,1.366c-0.62,0.688-0.986,1.488-1.098,2.398C12.012,8.63,12,8.83,12,9.03
	c0,0.688,0.155,1.333,0.466,1.933l-6.115,7.064c-0.312,0.334-0.466,0.722-0.466,1.167c0,0.555,0.211,1.011,0.632,1.365
	c0.332,0.312,0.72,0.468,1.163,0.468c0.045,0,0.1-0.013,0.166-0.034c0.488-0.022,0.887-0.211,1.197-0.566l6.114-7.064
	c0.444,0.134,0.898,0.199,1.363,0.199c0.399,0,0.809-0.055,1.229-0.166C18.637,13.173,19.391,12.707,20.011,11.996"/>
<g>
</g>
<g>
</g>
<g>
</g>
<g>
</g>
<g>
</g>
<g>
</g>
<g>
</g>
<g>
</g>
<g>
</g>
<g>
</g>
<g>
</g>
<g>
</g>
<g>
</g>
<g>
</g>
<g>
</g>
</svg>
