<?xml version="1.0" encoding="iso-8859-1"?>
<!-- Generator: Adobe Illustrator 16.2.1, SVG Export Plug-In . SVG Version: 6.00 Build 0)  -->
<!DOCTYPE svg PUBLIC "-//W3C//DTD SVG 1.1//EN" "http://www.w3.org/Graphics/SVG/1.1/DTD/svg11.dtd">
<svg version="1.1" id="Layer_1" xmlns="http://www.w3.org/2000/svg" xmlns:xlink="http://www.w3.org/1999/xlink" x="0px" y="0px"
	 width="15.748px" height="309.089px" viewBox="0 0 15.748 309.089" style="enable-background:new 0 0 15.748 309.089;"
	 xml:space="preserve">
<line style="fill:none;stroke:#E4E4E5;stroke-width:1.535;stroke-miterlimit:10;" x1="7.874" y1="0" x2="7.874" y2="309.089"/>
<path style="fill:none;stroke:#FFFFFF;stroke-width:1.431;stroke-miterlimit:10;" d="M14.317,95.736
	c0-3.544-2.885-6.416-6.442-6.416c-3.559,0-6.444,2.872-6.444,6.416s2.885,6.416,6.444,6.416
	C11.432,102.152,14.317,99.28,14.317,95.736"/>
<path style="fill:none;stroke:#FFFFFF;stroke-width:1.431;stroke-miterlimit:10;" d="M12.121,136.832c0-2.335-1.9-4.229-4.246-4.229
	c-2.345,0-4.247,1.894-4.247,4.229s1.902,4.229,4.247,4.229C10.22,141.061,12.121,139.167,12.121,136.832"/>
<path style="fill:none;stroke:#22D3C5;stroke-width:1.431;stroke-miterlimit:10;" d="M12.121,41.578c0-2.335-1.9-4.229-4.246-4.229
	c-2.345,0-4.247,1.894-4.247,4.229s1.902,4.229,4.247,4.229C10.22,45.807,12.121,43.913,12.121,41.578"/>
<path style="fill:none;stroke:#007AFF;stroke-width:2.862;stroke-miterlimit:10;" d="M14.317,64.801
	c0-3.544-2.885-6.416-6.442-6.416c-3.559,0-6.444,2.872-6.444,6.416c0,3.544,2.885,6.416,6.444,6.416
	C11.432,71.217,14.317,68.345,14.317,64.801"/>
<path style="fill:none;stroke:#22D3C5;stroke-width:1.431;stroke-miterlimit:10;" d="M12.121,177.927c0-2.335-1.9-4.229-4.246-4.229
	c-2.345,0-4.247,1.894-4.247,4.229s1.902,4.229,4.247,4.229C10.22,182.156,12.121,180.262,12.121,177.927"/>
<path style="fill:none;stroke:#007AFF;stroke-width:2.862;stroke-miterlimit:10;" d="M14.317,219.022
	c0-3.544-2.885-6.416-6.442-6.416c-3.559,0-6.444,2.872-6.444,6.416s2.885,6.416,6.444,6.416
	C11.432,225.438,14.317,222.566,14.317,219.022"/>
<path style="fill:none;stroke:#FFFFFF;stroke-width:1.431;stroke-miterlimit:10;" d="M14.317,260.117
	c0-3.544-2.885-6.416-6.442-6.416c-3.559,0-6.444,2.872-6.444,6.416s2.885,6.416,6.444,6.416
	C11.432,266.533,14.317,263.661,14.317,260.117"/>
<path style="fill:none;stroke:#FFFFFF;stroke-width:1.431;stroke-miterlimit:10;" d="M12.121,301.212c0-2.335-1.9-4.229-4.246-4.229
	c-2.345,0-4.247,1.894-4.247,4.229s1.902,4.229,4.247,4.229C10.22,305.441,12.121,303.547,12.121,301.212"/>
<g>
</g>
<g>
</g>
<g>
</g>
<g>
</g>
<g>
</g>
<g>
</g>
<g>
</g>
<g>
</g>
<g>
</g>
<g>
</g>
<g>
</g>
<g>
</g>
<g>
</g>
<g>
</g>
<g>
</g>
</svg>
