<?xml version="1.0" encoding="iso-8859-1"?>
<!-- Generator: Adobe Illustrator 16.2.1, SVG Export Plug-In . SVG Version: 6.00 Build 0)  -->
<!DOCTYPE svg PUBLIC "-//W3C//DTD SVG 1.1//EN" "http://www.w3.org/Graphics/SVG/1.1/DTD/svg11.dtd">
<svg version="1.1" id="Layer_1" xmlns="http://www.w3.org/2000/svg" xmlns:xlink="http://www.w3.org/1999/xlink" x="0px" y="0px"
	 width="322px" height="48px" viewBox="0 0 322 48" style="enable-background:new 0 0 322 48;" xml:space="preserve">
<path style="fill:#00C4B3;" d="M319.562,27.557c-1.73-0.638-3.66,0.25-4.297,1.987c-2.143,5.828-6.184,9.426-11.377,10.127
	c-3.162,0.425-6.391-0.252-9.328-1.846c6.629-6.019,9.029-12.838,8.887-17.935c-0.133-4.733-2.383-8.529-6.174-10.414
	c-5.15-2.559-11.041-1.203-15.01,3.457c-4.354,5.108-5.963,14.163,0.264,22.866c0.383,0.535,0.779,1.052,1.188,1.55
	c-4.404,2.424-8.346,3.031-11.723,1.806c-3.377-1.225-5.754-4.063-7.207-6.363c4.246-1.733,7.334-5.517,7.334-11.452
	c0-8.946-6.27-13.247-13.236-13.247h-12.375c-2.248,0-3.641,1.93-3.641,3.697v30.163c0,2.356,1.877,3.695,3.641,3.695
	c1.934,0,3.432-1.339,3.432-3.695v-8.047h7.789c1.631,3.227,5.391,9.131,11.928,11.526c5.412,1.983,11.381,1.153,17.738-2.467
	c0.486-0.278,0.963-0.562,1.428-0.847c3.971,2.824,8.566,4.373,13.203,4.371c0.918,0,1.84-0.06,2.76-0.183
	c7.658-1.035,13.766-6.301,16.764-14.452C322.189,30.12,321.297,28.194,319.562,27.557 M249.939,14.844h8.943
	c3.592,0,6.43,2.747,6.43,6.496c0,3.321-2.838,5.87-6.43,5.87h-8.943V14.844z M289.273,33.549c-0.455-0.519-0.891-1.065-1.299-1.642
	c-4.123-5.767-3.279-11.504-0.615-14.632c0.562-0.659,2.256-2.381,4.592-2.381c0.723,0,1.508,0.165,2.342,0.579
	c2.057,1.021,2.424,3.324,2.459,4.605C296.854,23.616,294.848,28.829,289.273,33.549"/>
<path style="fill:#00C4B3;" d="M56.142,7.976c-9.758,0-19.885,6.381-19.885,19.357c0,12.922,10.127,19.41,19.885,18.986
	c9.231,0,18.883-6.486,18.883-18.986C75.025,14.831,65.373,8.45,56.142,7.976 M55.56,39.833c-5.906,0-12.342-4.219-12.342-12.5
	c0-8.334,6.436-12.502,12.342-12.502c6.066,0,12.555,4.168,12.555,12.502C68.115,35.614,61.625,39.833,55.56,39.833"/>
<path style="fill:#00C4B3;" d="M106.683,11.762v19.51c0,11.266-18.379,10.621-18.379,0v-19.51c0-5.068-7.062-4.851-7.062,0v19.51
	c0,20.162,32.503,20.162,32.503,0v-19.51C113.745,6.587,106.683,6.964,106.683,11.762"/>
<path style="fill:#00C4B3;" d="M143.436,31.103c11.509-4.616,8.688-23.079-5.105-23.079h-14.445c-1.791,0-3.256,1.413-3.256,3.313
	v30.842c0,4.779,7.221,4.615,7.221-0.108v-9.829h8.525l8.197,11.729c3.262,4.127,8.906,0.11,6.084-4.072L143.436,31.103z
	 M138.331,25.997h-10.48V14.595h10.48C145.823,14.595,145.39,25.997,138.331,25.997"/>
<path style="fill:#00C4B3;" d="M223.342,10.187c-1.348-2.963-5.23-2.856-6.684,0l-15.471,30.24c-1.078,2.264,0,4.205,1.725,5.173
	c1.941,0.378,3.936,0,4.797-1.832l2.32-4.744h19.887l2.373,4.744c1.941,4.205,8.463,0.864,6.252-3.341L223.342,10.187z
	 M213.369,31.908l6.629-13.312l6.092,13.312H213.369z"/>
<path style="fill:#00C4B3;" d="M181.438,46.315c-12.684,0-22.245-9.719-22.245-22.611c0-12.891,9.561-22.613,22.245-22.613
	c5.602,0,11.215,2.35,14.648,6.134c1.342,1.475,1.232,3.757-0.244,5.095c-1.473,1.339-3.758,1.229-5.094-0.245
	c-2.08-2.291-5.734-3.77-9.311-3.77c-8.709,0-15.029,6.476-15.029,15.399s6.32,15.398,15.029,15.398
	c3.619,0,7.115-1.338,9.848-3.766c1.488-1.322,3.766-1.189,5.09,0.299c1.326,1.489,1.191,3.768-0.295,5.092
	C192.025,44.331,186.826,46.315,181.438,46.315"/>
<path style="fill:#00C4B3;" d="M36.974,1.646c-1.6-1.126-3.814-0.742-4.943,0.86L19.324,20.562L6.699,2.514
	C5.574,0.909,3.363,0.519,1.757,1.641c-1.605,1.123-1.996,3.334-0.873,4.94l15.082,21.557v14.048c0,1.953,1.582,3.533,3.533,3.533
	c1.95,0,3.532-1.58,3.532-3.533V27.622L37.833,6.587C38.959,4.986,38.576,2.772,36.974,1.646"/>
<g>
</g>
<g>
</g>
<g>
</g>
<g>
</g>
<g>
</g>
<g>
</g>
<g>
</g>
<g>
</g>
<g>
</g>
<g>
</g>
<g>
</g>
<g>
</g>
<g>
</g>
<g>
</g>
<g>
</g>
</svg>
