<svg xmlns="http://www.w3.org/2000/svg" xmlns:xlink="http://www.w3.org/1999/xlink" version="1.1" x="0px" y="0px" width="19.407px" height="12.129px" viewBox="0 0 19.407 12.129" style="enable-background:new 0 0 19.407 12.129;" xml:space="preserve"><path style="fill:#007AFF;" d="M1.213,2.426C0.404,2.426,0,2.021,0,1.213S0.404,0,1.213,0s1.213,0.404,1.213,1.213	S2.021,2.426,1.213,2.426 M1.213,7.277C0.404,7.277,0,6.873,0,6.064s0.404-1.213,1.213-1.213s1.213,0.404,1.213,1.213	S2.021,7.277,1.213,7.277 M1.213,12.129C0.404,12.129,0,11.725,0,10.916s0.404-1.213,1.213-1.213s1.213,0.404,1.213,1.213	S2.021,12.129,1.213,12.129 M4.852,0h14.556v2.427H4.852V0z M4.852,4.852h14.556v2.426H4.852V4.852z M4.852,9.703h14.556v2.426 H4.852V9.703z"/></svg>
