<?xml version="1.0" encoding="iso-8859-1"?>
<!-- Generator: Adobe Illustrator 16.2.1, SVG Export Plug-In . SVG Version: 6.00 Build 0)  -->
<!DOCTYPE svg PUBLIC "-//W3C//DTD SVG 1.1//EN" "http://www.w3.org/Graphics/SVG/1.1/DTD/svg11.dtd">
<svg version="1.1" id="Layer_1" xmlns="http://www.w3.org/2000/svg" xmlns:xlink="http://www.w3.org/1999/xlink" x="0px" y="0px"
	 width="300px" height="110px" viewBox="0 0 300 110" style="enable-background:new 0 0 300 110;" xml:space="preserve">
<path style="fill:#007AFF;" d="M297.429,0H18.64h-3.588H0l12.481,18.628v87.535c0,2.118,1.151,3.837,2.57,3.837h282.377
	c1.421,0,2.571-1.719,2.571-3.837V3.837C300,1.719,298.85,0,297.429,0 M270.67,30.673c-1.215,1.631-2.271,2.445-3.169,2.445
	c-1.057,0-1.584-0.525-1.584-1.578c0-0.42,0.29-0.999,0.871-1.736c1.056-1.313,2.007-2.84,2.852-4.575
	c0.844-1.736,1.268-3.024,1.268-3.866c0-0.841-0.502-1.289-1.504-1.342h-1.586c-1.057-0.053-1.994-0.543-2.812-1.471
	c-0.819-0.928-1.228-2.028-1.228-3.301c0-1.484,0.526-2.73,1.584-3.738c1.056-1.007,2.377-1.511,3.961-1.511
	c1.795,0,3.287,0.723,4.476,2.169c1.188,1.448,1.783,3.302,1.783,5.563C275.582,22.046,273.944,26.359,270.67,30.673
	 M285.009,30.673c-1.268,1.631-2.324,2.445-3.169,2.445c-1.004,0-1.505-0.525-1.505-1.578c0-0.42,0.29-0.999,0.872-1.736
	c1.002-1.313,1.927-2.84,2.772-4.575c0.844-1.736,1.268-3.024,1.268-3.866c0-0.841-0.475-1.289-1.426-1.342h-1.586
	c-1.108-0.053-2.072-0.543-2.891-1.471s-1.229-2.028-1.229-3.301c0-1.484,0.527-2.73,1.584-3.738
	c1.057-1.007,2.377-1.511,3.963-1.511c1.847,0,3.365,0.723,4.555,2.169c1.188,1.448,1.782,3.302,1.782,5.563
	C290,21.993,288.336,26.308,285.009,30.673"/>
</svg>
