<?xml version="1.0" encoding="iso-8859-1"?>
<!-- Generator: Adobe Illustrator 16.2.1, SVG Export Plug-In . SVG Version: 6.00 Build 0)  -->
<!DOCTYPE svg PUBLIC "-//W3C//DTD SVG 1.1//EN" "http://www.w3.org/Graphics/SVG/1.1/DTD/svg11.dtd">
<svg version="1.1" id="Layer_1" xmlns="http://www.w3.org/2000/svg" xmlns:xlink="http://www.w3.org/1999/xlink" x="0px" y="0px"
	 width="305.668px" height="63.667px" viewBox="0 0 305.668 63.667" style="enable-background:new 0 0 305.668 63.667;"
	 xml:space="preserve">
<path style="fill:#007AFF;" d="M299.359,1H20.57h-3.588H1.931l12.481,10.16v47.747c0,1.155,1.152,2.093,2.571,2.093h282.377
	c1.421,0,2.571-0.938,2.571-2.093V3.093C301.931,1.938,300.78,1,299.359,1 M272.601,31.672c-1.215,1.631-2.271,2.446-3.169,2.446
	c-1.057,0-1.584-0.525-1.584-1.578c0-0.42,0.29-0.999,0.871-1.736c1.056-1.314,2.007-2.841,2.852-4.576
	c0.844-1.736,1.268-3.024,1.268-3.866c0-0.841-0.503-1.289-1.505-1.342h-1.585c-1.057-0.053-1.994-0.543-2.812-1.471
	c-0.819-0.927-1.228-2.028-1.228-3.3c0-1.484,0.527-2.731,1.585-3.738c1.055-1.007,2.376-1.511,3.961-1.511
	c1.794,0,3.287,0.723,4.475,2.169c1.189,1.448,1.783,3.302,1.783,5.563C277.513,23.046,275.875,27.359,272.601,31.672
	 M286.939,31.672c-1.268,1.631-2.324,2.446-3.169,2.446c-1.004,0-1.505-0.525-1.505-1.578c0-0.42,0.29-0.999,0.872-1.736
	c1.002-1.314,1.927-2.841,2.772-4.576c0.844-1.736,1.268-3.024,1.268-3.866c0-0.841-0.475-1.289-1.426-1.342h-1.586
	c-1.108-0.053-2.072-0.543-2.891-1.471c-0.818-0.927-1.229-2.028-1.229-3.3c0-1.484,0.527-2.731,1.584-3.738S284.008,11,285.594,11
	c1.847,0,3.365,0.723,4.555,2.169c1.188,1.448,1.782,3.302,1.782,5.563C291.931,22.993,290.267,27.307,286.939,31.672"/>
<g>
</g>
<g>
</g>
<g>
</g>
<g>
</g>
<g>
</g>
<g>
</g>
<g>
</g>
<g>
</g>
<g>
</g>
<g>
</g>
<g>
</g>
<g>
</g>
<g>
</g>
<g>
</g>
<g>
</g>
</svg>
