<svg xmlns="http://www.w3.org/2000/svg" xmlns:xlink="http://www.w3.org/1999/xlink" version="1.1" x="0px" y="0px" width="28px" height="28px" viewBox="0 0 28.196 28.642" style="enable-background:new 0 0 28.196 28.642;" xml:space="preserve"><path style="fill:#FFFFFF;" d="M11.312,22.626C5.064,22.626,0,17.561,0,11.313S5.064,0,11.312,0c6.247,0,11.312,5.065,11.312,11.313 S17.56,22.626,11.312,22.626 M18.611,11.313c0-4.032-3.269-7.3-7.299-7.3c-4.033,0-7.302,3.268-7.302,7.3 c0,4.032,3.269,7.3,7.302,7.3C15.343,18.613,18.611,15.345,18.611,11.313"/><path style="fill:#FFFFFF;" d="M16.543,17.007c-1.041,1.043-1.041,2.731,0,3.772l7.102,7.081c1.041,1.041,2.729,1.042,3.771-0.001 c1.041-1.041,1.041-2.73,0-3.771l-7.102-7.08C19.272,15.968,17.583,15.967,16.543,17.007C16.543,17.007,17.583,15.967,16.543,17.007"/></svg>
