<svg xmlns="http://www.w3.org/2000/svg" xmlns:xlink="http://www.w3.org/1999/xlink" version="1.1" x="0px" y="0px" width="28px" height="28px" viewBox="0 0 28 28" style="enable-background:new 0 0 28 28;" xml:space="preserve">
<path style="fill:#FFFFFF;" d="M27.82,15.528l-4.125,1.746c-0.148,0.396-0.271,0.719-0.371,0.967l1.709,4.123l-2.451,2.414 l-4.16-1.633c-0.248,0.098-0.57,0.223-0.967,0.371l-1.709,4.123H12.29l-1.746-4.087c-0.396-0.147-0.73-0.284-1.004-0.407 l-4.086,1.672l-2.415-2.416l1.636-4.123c-0.149-0.272-0.297-0.607-0.446-1.004L0.18,15.565V12.11l4.049-1.746 c0.149-0.396,0.297-0.729,0.446-1.002L3.003,5.274l2.414-2.451L9.54,4.495c0.273-0.149,0.607-0.284,1.004-0.409L12.253,0h3.456 l1.746,4.086c0.371,0.149,0.693,0.286,0.967,0.409l4.123-1.709l2.451,2.451l-1.672,4.162c0.123,0.248,0.248,0.557,0.371,0.928 l4.125,1.746V15.528z M10.321,17.479c1.016,1.002,2.235,1.504,3.659,1.504s2.643-0.502,3.66-1.504 c1.014-1.004,1.521-2.224,1.521-3.66c0-1.436-0.508-2.662-1.521-3.678c-1.018-1.015-2.236-1.523-3.66-1.523 s-2.644,0.509-3.659,1.523c-1.016,1.016-1.522,2.242-1.522,3.678C8.799,15.256,9.306,16.476,10.321,17.479"/></svg>
