<svg xmlns="http://www.w3.org/2000/svg" xmlns:xlink="http://www.w3.org/1999/xlink" version="1.1" x="0px" y="0px" width="32px" height="30px" viewBox="0 0 32 30" style="enable-background:new 0 0 32 30;" xml:space="preserve"><path style="fill:#FFFFFF;" d="M2.334,29.885c-1.148,0-2.078-0.93-2.078-2.078V6.185c0-1.149,0.93-2.078,2.078-2.078h11.148 l-2.97,2.97H3.226v19.837l18.965,0.002v-3.99l2.971-2.969l-0.001,7.85c-0.001,1.146-0.931,2.078-2.079,2.078H2.334z"/><path style="fill:#FFFFFF;" d="M22.092,3.845V0.116l9.652,9.652l-9.693,9.693v-3.877c0,0-5.686-0.394-9.763,2.131 c-2.708,1.678-4.325,3.355-5.665,5.623c0,0,0.366-6.021,3.831-11.508C14.787,4.972,22.092,3.845,22.092,3.845"/></svg>
