<svg xmlns="http://www.w3.org/2000/svg" xmlns:xlink="http://www.w3.org/1999/xlink" version="1.1" x="0px" y="0px" width="35px" height="35px" viewBox="0 0 35 35" style="enable-background:new 0 0 35 35;" xml:space="preserve">
<path style="fill:#547BBC;" d="M17.499,34.508c9.398,0,17.017-7.615,17.017-17.008c0-9.393-7.619-17.008-17.017-17.008 C8.101,0.492,0.483,8.107,0.483,17.5C0.483,26.893,8.101,34.508,17.499,34.508"/><path style="fill:#FFFFFF;" d="M13.394,14.62h1.759v-1.709c0-0.753,0.019-1.915,0.566-2.635c0.578-0.763,1.369-1.28,2.732-1.28 c2.219,0,3.154,0.316,3.154,0.316l-0.441,2.604c0,0-0.732-0.212-1.416-0.212c-0.686,0-1.297,0.245-1.297,0.929v1.986h2.805 l-0.195,2.545h-2.609v8.839h-3.298v-8.839h-1.759V14.62z"/></svg>