<svg xmlns="http://www.w3.org/2000/svg" xmlns:xlink="http://www.w3.org/1999/xlink" version="1.1" x="0px" y="0px" width="35px" height="35px" viewBox="0 0 35 35" style="enable-background:new 0 0 35 35;" xml:space="preserve">
<path style="fill:#4B4B4B;" d="M17.5,34.508c9.398,0,17.016-7.615,17.016-17.008c0-9.394-7.618-17.008-17.016-17.008 S0.483,8.106,0.483,17.5C0.483,26.893,8.103,34.508,17.5,34.508"/><path style="fill:#FFFFFF;" d="M14.686,25.117c-2.024,0-3.485-1.279-3.485-2.816c0-1.508,1.813-2.762,3.836-2.74 c0.472,0.006,0.912,0.082,1.311,0.211c1.097,0.764,1.885,1.193,2.107,2.064c0.043,0.176,0.065,0.357,0.065,0.543 C18.521,23.916,17.529,25.117,14.686,25.117 M15.216,16.102c-1.357-0.041-2.648-1.519-2.882-3.3 c-0.235-1.782,0.676-3.146,2.034-3.106c1.357,0.041,2.648,1.47,2.882,3.252C17.484,14.731,16.575,16.143,15.216,16.102 M18.031,18.74c-0.476-0.336-1.386-1.156-1.386-1.637c0-0.566,0.161-0.843,1.011-1.507c0.871-0.682,1.488-1.639,1.488-2.751 c0-1.325-0.59-2.616-1.698-3.042h1.671l1.18-0.853h-5.271c-2.362,0-4.586,1.789-4.586,3.861c0,2.117,1.61,3.827,4.014,3.827 c0.168,0,0.329-0.004,0.489-0.016c-0.156,0.298-0.269,0.636-0.269,0.983c0,0.588,0.317,1.067,0.718,1.456 c-0.303,0-0.596,0.01-0.913,0.01c-2.927,0-5.179,1.861-5.179,3.793c0,1.904,2.469,3.094,5.395,3.094c3.336,0,5.18-1.893,5.18-3.795 C19.875,20.639,19.424,19.725,18.031,18.74 M25.7,16.257h-2.053v-2.051h-1.65v2.051h-2.052v1.649h2.052v2.05h1.65v-2.05H25.7V16.257 z"/></svg>
