<svg xmlns="http://www.w3.org/2000/svg" xmlns:xlink="http://www.w3.org/1999/xlink" version="1.1" x="0px" y="0px" width="34px" height="34px" viewBox="0 0 34 34" style="enable-background:new 0 0 34 34;" xml:space="preserve"><path style="fill:#EB0029;" d="M17,34C7.626,34,0,26.374,0,17S7.626,0,17,0s17,7.626,17,17S26.374,34,17,34 M17,1.619 C8.519,1.619,1.619,8.519,1.619,17c0,8.48,6.899,15.381,15.381,15.381c8.48,0,15.381-6.9,15.381-15.381 C32.381,8.519,25.48,1.619,17,1.619"/><path style="fill:#EB0029;" d="M11.007,17.51c-1.624,0.423-2.934,0.366-3.676-0.171c-1.911-1.399-0.452-4.205,0.066-5.041 c-0.934,1.023-1.862,2.05-2.588,3.17c-1.142,1.75-1.626,3.67-0.855,4.9c1.382,2.221,4.703,1.196,6.82,0.303l19.646-8.29 L11.007,17.51z M29.955,18.321h-1.841c-0.152,0-0.255-0.122-0.228-0.273l0.317-1.788c0.025-0.15-0.077-0.274-0.231-0.274h-0.434 c-0.153,0-0.3,0.124-0.324,0.274l-0.321,1.788c-0.024,0.151-0.172,0.273-0.322,0.273h-1.787c-0.151,0-0.32,0.121-0.349,0.267 l-0.07,0.436c-0.034,0.17,0.049,0.267,0.202,0.267h1.832c0.152,0,0.254,0.122,0.227,0.273l-0.321,1.822 c-0.027,0.15,0.074,0.273,0.227,0.273h0.439c0.151,0,0.297-0.123,0.324-0.273l0.322-1.822c0.027-0.151,0.174-0.273,0.325-0.273 h1.787c0.152,0,0.321-0.091,0.354-0.267l0.075-0.436C30.188,18.43,30.108,18.321,29.955,18.321"/></svg>
