<svg xmlns="http://www.w3.org/2000/svg" xmlns:xlink="http://www.w3.org/1999/xlink" version="1.1" x="0px" y="0px" width="35px" height="35px" viewBox="0 0 35 35" style="enable-background:new 0 0 35 35;" xml:space="preserve">
<path style="fill:#78CBEF;" d="M17.5,34.508c9.398,0,17.016-7.614,17.016-17.008c0-9.393-7.618-17.008-17.016-17.008 S0.483,8.107,0.483,17.5C0.483,26.894,8.103,34.508,17.5,34.508"/><path style="fill:#FFFFFF;" d="M26.037,13.045c-0.627,0.277-1.301,0.466-2.008,0.55c0.723-0.433,1.277-1.117,1.537-1.934 c-0.676,0.401-1.423,0.691-2.221,0.848c-0.637-0.68-1.547-1.104-2.553-1.104c-1.93,0-3.497,1.565-3.497,3.495 c0,0.274,0.03,0.54,0.09,0.796c-2.906-0.146-5.482-1.536-7.208-3.652c-0.301,0.519-0.473,1.118-0.473,1.759 c0,1.212,0.617,2.282,1.555,2.909c-0.573-0.018-1.112-0.177-1.584-0.437v0.043c0,1.694,1.205,3.107,2.806,3.427 c-0.294,0.082-0.602,0.123-0.922,0.123c-0.225,0-0.445-0.021-0.658-0.062c0.445,1.388,1.736,2.399,3.267,2.426 c-1.197,0.938-2.705,1.497-4.343,1.497c-0.283,0-0.562-0.016-0.835-0.048c1.548,0.99,3.386,1.569,5.361,1.569 c6.433,0,9.95-5.325,9.95-9.944c0-0.152-0.004-0.304-0.01-0.453C24.977,14.36,25.57,13.745,26.037,13.045"/></svg>
