<svg xmlns="http://www.w3.org/2000/svg" xmlns:xlink="http://www.w3.org/1999/xlink" version="1.1" x="0px" y="0px" width="35px" height="35px" viewBox="0 0 35 35" style="enable-background:new 0 0 35 35;" xml:space="preserve">
<path style="fill:#E95655;" d="M17.5,34.508c9.397,0,17.017-7.615,17.017-17.008S26.897,0.492,17.5,0.492 C8.102,0.492,0.483,8.107,0.483,17.5S8.102,34.508,17.5,34.508"/><path style="fill:#FFFFFF;" d="M17.5,8.951c-4.699,0-8.509,3.807-8.509,8.504c0,3.482,2.096,6.475,5.094,7.789 c-0.024-0.594-0.004-1.307,0.148-1.953c0.163-0.689,1.094-4.634,1.094-4.634s-0.272-0.543-0.272-1.345 c0-1.262,0.732-2.202,1.641-2.202c0.774,0,1.148,0.581,1.148,1.277c0,0.777-0.496,1.94-0.751,3.018 c-0.213,0.902,0.453,1.636,1.343,1.636c1.611,0,2.697-2.066,2.697-4.52c0-1.863-1.256-3.258-3.54-3.258 c-2.581,0-4.188,1.923-4.188,4.071c0,0.741,0.218,1.265,0.56,1.668c0.158,0.187,0.179,0.262,0.123,0.475 c-0.041,0.155-0.135,0.534-0.174,0.683c-0.056,0.215-0.231,0.291-0.425,0.211c-1.189-0.483-1.743-1.785-1.743-3.247 c0-2.416,2.038-5.312,6.08-5.312c3.249,0,5.387,2.35,5.387,4.871c0,3.337-1.856,5.829-4.592,5.829c-0.917,0-1.781-0.496-2.078-1.061 c0,0-0.494,1.959-0.599,2.336c-0.18,0.656-0.533,1.312-0.856,1.822c0.765,0.227,1.573,0.35,2.411,0.35 c4.7,0,8.508-3.809,8.508-8.504C26.009,12.758,22.2,8.951,17.5,8.951"/></svg>
