<?xml version="1.0" encoding="iso-8859-1"?>
<!-- Generator: Adobe Illustrator 16.2.1, SVG Export Plug-In . SVG Version: 6.00 Build 0)  -->
<!DOCTYPE svg PUBLIC "-//W3C//DTD SVG 1.1//EN" "http://www.w3.org/Graphics/SVG/1.1/DTD/svg11.dtd">
<svg version="1.1" id="Layer_1" xmlns="http://www.w3.org/2000/svg" xmlns:xlink="http://www.w3.org/1999/xlink" x="0px" y="0px"
	 width="50px" height="50px" viewBox="0 0 50 50" style="enable-background:new 0 0 50 50;" xml:space="preserve">
<circle style="fill:none;stroke:#FFFFFF;stroke-width:2;stroke-linecap:round;stroke-miterlimit:10;" cx="25" cy="25" r="24"/>
<rect style="fill:none;" width="50" height="50"/>
<path style="fill:#FFFFFF;stroke:#FFFFFF;stroke-miterlimit:10;" d="M29.934,35.527c-0.026-0.286-0.045-0.747-0.061-1.226
	c4.345-0.444,7.393-1.487,7.393-2.7c-0.012-0.002-0.011-0.051-0.011-0.07c-3.248-2.928,2.815-23.729-8.473-23.306
	c-0.709-0.6-1.95-1.133-3.73-1.133C9.761,8.249,16.522,27.893,13.038,31.6c-0.002,0.002-0.005,0.002-0.007,0.002
	c0,0.002,0.001,0.004,0.001,0.006l-0.001,0.002c0,0,0.001,0,0.002,0c0.014,1.189,2.959,2.213,7.178,2.668
	c-0.012,0.291-0.037,0.649-0.092,1.25c-1.282,3.447-7.958,3.664-11.659,7.093c2.023,1.766,9.072,6.508,16.634,6.508
	s13.841-3.589,16.345-6.608C37.73,39.188,31.202,38.941,29.934,35.527z"/>
<g>
</g>
<g>
</g>
<g>
</g>
<g>
</g>
<g>
</g>
<g>
</g>
<g>
</g>
<g>
</g>
<g>
</g>
<g>
</g>
<g>
</g>
<g>
</g>
<g>
</g>
<g>
</g>
<g>
</g>
</svg>
