<?xml version="1.0" encoding="iso-8859-1"?>
<!-- Generator: Adobe Illustrator 16.2.1, SVG Export Plug-In . SVG Version: 6.00 Build 0)  -->
<!DOCTYPE svg PUBLIC "-//W3C//DTD SVG 1.1//EN" "http://www.w3.org/Graphics/SVG/1.1/DTD/svg11.dtd">
<svg version="1.1" id="Layer_1" xmlns="http://www.w3.org/2000/svg" xmlns:xlink="http://www.w3.org/1999/xlink" x="0px" y="0px"
	 width="50px" height="50.198px" viewBox="0 0 50 50.198" style="enable-background:new 0 0 50 50.198;" xml:space="preserve">
<circle style="fill:none;stroke:#FFFFFF;stroke-width:2;stroke-linecap:round;stroke-miterlimit:10;" cx="25" cy="25" r="24"/>
<rect style="fill:none;" width="50" height="50"/>
<path style="fill:#FFFFFF;stroke:#FFFFFF;stroke-width:2;stroke-linecap:round;stroke-miterlimit:10;" d="M29.934,35.527
	c-0.146-1.611-0.091-2.736-0.091-4.209c0.73-0.383,2.038-2.825,2.259-4.889c0.574-0.047,1.479-0.606,1.744-2.818
	c0.143-1.187-0.425-1.855-0.771-2.065c0.934-2.809,2.874-11.499-3.589-12.397c-0.664-1.168-2.367-1.759-4.581-1.759
	c-8.854,0.163-9.922,6.686-7.981,14.156c-0.345,0.21-0.913,0.878-0.771,2.065c0.266,2.211,1.17,2.771,1.744,2.818
	c0.22,2.062,1.58,4.506,2.312,4.889c0,1.473,0.055,2.598-0.091,4.209c-1.261,3.391-7.737,3.656-11.473,6.925
	c3.906,3.933,10.236,6.746,16.917,6.746c6.68,0,14.531-5.274,15.838-6.714C37.688,39.186,31.197,38.93,29.934,35.527z"/>
<g>
</g>
<g>
</g>
<g>
</g>
<g>
</g>
<g>
</g>
<g>
</g>
<g>
</g>
<g>
</g>
<g>
</g>
<g>
</g>
<g>
</g>
<g>
</g>
<g>
</g>
<g>
</g>
<g>
</g>
</svg>
